<svg xmlns="http://www.w3.org/2000/svg" viewBox="0 0 426.64 426.64"><defs><style>.cls-1{fill:#fdfefe;}.cls-2{fill:#055287;}</style></defs><g id="Layer_2" data-name="Layer 2"><g id="Layer_1-2" data-name="Layer 1"><path class="cls-1" d="M426.64,426.64H0V0H426.64ZM360,392.91v-2.39q0-115.17,0-230.34a132.67,132.67,0,0,0-2-23.79c-6.49-35.28-23.94-63.93-52.69-85.32-29-21.56-61.72-30-97.6-25.61a130.46,130.46,0,0,0-77.81,37.76c-26.92,26.69-40.39,59.29-40.45,97.22q-.16,106.27,0,212.56c0,1.82-.09,3.63-.09,5.45,0,4.79,0,9.58,0,14.46Z"/><path class="cls-2" d="M360,392.91H89.24c0-4.88,0-9.67,0-14.46,0-1.82.09-3.63.09-5.45q0-106.28,0-212.56c.06-37.93,13.53-70.53,40.45-97.22a130.46,130.46,0,0,1,77.81-37.76c35.88-4.39,68.62,4.05,97.6,25.61,28.75,21.39,46.2,50,52.69,85.32a132.67,132.67,0,0,1,2,23.79q0,115.17,0,230.34Zm-7.53-8.08a3.43,3.43,0,0,0,.36-2.24q0-112,0-224a121.84,121.84,0,0,0-3.29-27.8C334.59,67.17,273.6,24.51,208.7,33c-37.52,4.88-67.29,23.2-89.28,54-12,16.79-18.75,35.73-22.06,55.93-.92,5.64-.83,11.48-.84,17.23q-.08,107.84,0,215.67v9Z"/><path class="cls-1" d="M352.42,384.83H96.49v-9q0-107.83,0-215.67c0-5.75-.08-11.59.84-17.23,3.31-20.2,10.06-39.14,22.06-55.93,22-30.81,51.76-49.13,89.28-54,64.9-8.45,125.89,34.21,140.76,97.87a121.84,121.84,0,0,1,3.29,27.8q.09,112,0,224A3.43,3.43,0,0,1,352.42,384.83Zm-247.34-7.62H345.42V374q0-107.25,0-214.5a116.92,116.92,0,0,0-4.8-33.19A120.13,120.13,0,0,0,211,40.64,115.36,115.36,0,0,0,150.36,65.9c-30,24.34-45.31,56.1-45.47,94.66-.3,71.27-.09,142.53-.08,213.8A5.86,5.86,0,0,0,105.08,377.21Z"/><path class="cls-2" d="M105.08,377.21a5.86,5.86,0,0,1-.27-2.85c0-71.27-.22-142.53.08-213.8.16-38.56,15.48-70.32,45.47-94.66A115.36,115.36,0,0,1,211,40.64,120.13,120.13,0,0,1,340.6,126.3a116.92,116.92,0,0,1,4.8,33.19q0,107.25,0,214.5v3.22ZM243.41,254.86c.19,0,.5.14.55.07.17-.25-.06-.34-.27-.39-.35-2.23-3.42-6-4.79-5.59,0,.6-.54,1.2-.11,2,.68.47,2-.19,2.19,1.25A3.81,3.81,0,0,0,243.41,254.86Zm8.28-2.23c.58.08.86-.28,1-.75a33.54,33.54,0,0,1,3.08-7.3,4.23,4.23,0,0,0-3.34,3.45c-.37,1.52-.55,3.09-.81,4.64l0,.06Zm.7-68.67c1.42-.29,1.34-1.53,1.61-2.4,2.58-8.16,2.3-16.44.28-24.57-3.8-15.24-6.95-30.63-10.65-45.89-1.68-6.93-3-14-1.33-21.07a5.21,5.21,0,0,0-1.58-5.27c-4.14-4.46-9.55-6.74-15.23-8.21-10.38-2.68-20.89-.21-25.19,12.84-2.83,8.55-2.51,17.18-.62,25.72,2.68,12.17,5.85,24.23,8.79,36.35,1.6,6.56,2.77,13.15.79,19.86a10,10,0,0,1-15.41,5.15,27.29,27.29,0,0,1-9.06-11.63A52.66,52.66,0,0,1,181,149.5a124,124,0,0,0-5.62-26.81,49.14,49.14,0,0,0-3.1-7.68c-5.38-10.19-16.57-12.12-24.56-3.81-11.3,11.75-17.93,26-21.19,41.92-3.46,16.89-3,33.91-1.67,51,1.41,17.94,4.17,35.77,4.74,53.79.07,2.27.26,4.54.42,7.18a5.4,5.4,0,0,0,.8-3.3c1.21-15.79.43-31.56-.49-47.34-1.07-18.2-2.16-36.42.51-54.59,1.11-7.61,2.34-15.16,7.45-21.4a13.76,13.76,0,0,0,2-3.76c1.51-3.83,1.54-3.86,4.79-1.32a1.73,1.73,0,0,0,.63.2,10,10,0,0,0,1.17-5,13.38,13.38,0,0,1,1.15-5.75c.45-1.12,1.37-2.1,2.53-1.64,2.29.9,3.2-.14,3.79-2.08a1.16,1.16,0,0,1,1.28-.92c.33,2.17,2.34,2.49,4.05,3.18a14.15,14.15,0,0,1,4.32,2.75c2.35,2.15,3.68,4.67,3.12,8.2a13.73,13.73,0,0,0,.92,8c1.17-.64,1.77-1.88,3.33-1.87a15.27,15.27,0,0,1,1.36,6.53c.11,3.11-.08,6.26,2.71,8.61a6.78,6.78,0,0,1,1.71,3.07c1.48,4.73,2.84,9.49,4.28,14.37-3,1-2.61-2.72-4.56-3.18-.22,2.24-.27,4.38-.67,6.46-.87,4.46,1.55,7.74,3.91,11.18-2.32-3.19.93-6.41-.31-9.59a.9.9,0,0,1,.16-.67c1-1.62,2.07-3.57,3.76-4,1.86-.45,3.15,1.42,4.17,3a10.05,10.05,0,0,1,.71,1.23c1.7,3.77,5.68,6,7,10,.15.47.71.84,1.13,1.2,1.54,1.35,3.16,2.61,4.63,4a5.29,5.29,0,0,1,2,4.32c-3.39,1.13-5.1-2.73-8-2.6-.81.94.19,2.24-.82,3.2-.45-.74-.87-1.37-1.22-2.05-.45-.87-2.5-1.5-.46-2.81.06,0,0-.44-.15-.63a6.41,6.41,0,0,0-2.34-2.6c-1.08-.59-1.32.81-2,1.22s-2,1-1.87-.23-.28-2.76.15-3.7c1.3-2.85-.76-3.92-2.54-6,0,1.59-.68,2.53-.16,3.51,2,3.89,2.07,8,1.73,12.26-.07.94,0,1.61,1.34,1.23-1.87-3.52,2-4,3.14-6.62a25.77,25.77,0,0,1,1.44,12c-.56,4,1.17,6.91,3.31,9.88-.53-2.65,1.28-5.58-1.11-8-.4-.4-.1-1,.23-1.28,1.24-1.15,1-2.26-.2-3.36,2.66-1.3,5.37-1.49,8-2,1.15-.23,1.89.48,1.67,1.82-4.44.18-5,2.5-4.5,8.94,1.08.14,1.92-.55,1.77-1.39-.57-3.07,1.54-3.74,3.64-4.6,2.87-1.18,3.6-2.71,3-5.82a12.46,12.46,0,0,1-.52-4.2c.2-1.41.54-2.74,2.36-3.39.51,3.27.44,6.65,3.35,8.78-2.94,2.71-3.09,4.29-.65,7,1.8-2.61,2.87-5.26,1.66-8.38a13.89,13.89,0,0,1-1.25-5.74,4.34,4.34,0,0,1,2.37-4.1c1.51,1.21,1.15,2.8,1.07,4.36-.07,1.28-.68,2.76.74,3.7,2.12,1.4,2,3.21,1.07,5.19s-2.17,3.71-2,6c0,.21-.08.57-.23.64-2.38,1.13-1.85,3.4-2.15,5.36-.17,1.09-.11,2.34-1.36,3-1.56-2.4-1.21-5.13-1.58-7.93-1.43,1.39-.67,3.24-2,4.46-1.64-2.45-3.9-1-6.14-1.06-.11,1.68-.16,3.12,2.12,2.48,1.36-.38,2.07.34,2.74,1.29,1.12,1.58.8,3.3.5,5-.25,1.39-.54,2.79-.68,4.19s.47,2.25,2.15,2.12a31,31,0,0,0,.65-4c.09-2.49.95-4.39,3.27-5.57a3.07,3.07,0,0,0,1.58-3.62,4.65,4.65,0,0,1-.2-1.63,2.67,2.67,0,0,1,2.69-2.51c1.65.12,1.34,1.67,1.18,2.83s-.51,2.47-.67,3.72a2.38,2.38,0,0,0,1.65,2.74c0-2.28,0-4.3,0-6.32a4.42,4.42,0,0,1,1.43-3.15,1.52,1.52,0,0,1,1.92-.45c.87.51.47,1.18.13,1.83a7,7,0,0,0,.26,6.61,10,10,0,0,1,1.28,6.58c2.46-.93,2.79,1.44,4,2.42,1-1.19-.25-2.78,1.09-3.79,2.27-1.72,2.32-2.4.83-4.79-.61-1-1.6-1.76-1.45-3.14.31-2.68-.13-5.36-.26-8-.09-2,0-4,1.26-5.67,1.54-2.06,4.2-3.13,4.92-6.3,1.4,1.86,2.71,2.32,4.3,1.13.72,1.67.34,3.2.22,4.64-.19,2.23,2.14,1.69,2.9,2.8-1.69,1.86-2.88,1.85-4.43,0-.87-1-1.61-2.15-2.51-3.14a1.17,1.17,0,0,0-2.11.27c-.38.71,1,4,1.83,4.33s1.22-.87,2.15-.07c-.11,3.23-1.52,6.63-.32,10.55,1.31-2.51.46-4.8,1-6.9.23-.93.36-2.05,1.5-2.15,1.49-.13,1.19,1.25,1.41,2.32l3.55-4.5c1.17.87.69,2.41,1.76,3.18.92-1.06,0-3.2,2.17-3.57l1.12,1.33c.79.12,1.22-.93,2-.47,1.49,1.81-1.76,4,.52,6,1.18-4.11.93-8.34,2.51-12.35,4.29,3.43,4.68,3.37,7-1.17,1.12-2.15,2.51-4,4.92-4.78a41.19,41.19,0,0,1-.61-4.37c0-1.56-.71-3.89,1.33-4.25,2.49-.43,2.11,2.16,2.54,3.72.38,1.37.36,3,2.18,3.63a4.34,4.34,0,0,0-.51-4.93,3.88,3.88,0,0,1-.94-3.24c.36-4.25-1.4-7.09-5.4-8.67a2.87,2.87,0,0,1,.18-.88c3.09-5.85,3.48-12.2,3.6-18.64.05-2.19.3-4.77,2.11-6.11,3.22-2.39,2.91-5.43,2.51-8.67-.24-1.88-.55-3.75-.66-5.64-.09-1.71,0-3.46,1.21-4.81,1.77,0,1.78,2.54,4,2.33a27,27,0,0,1,1-16.5c2.63,1,4.48-.36,6.42-1.42,2.14-1.17,8.3.11,9.77,2a5.7,5.7,0,0,1,.9,1.66,32.57,32.57,0,0,1,1.17,4.33,3.49,3.49,0,0,0,1.37,2.3c.7.56,1.33,1.26,2.23.42s.29-1.55-.28-2.24-1.56-1.33-.91-2.73c2,1.34,2.89,3.58,5,4.48.16.06.18.58.17.88-.15,3.79,1.72,6.77,4.27,9.19,4.79,4.57,7,10.31,8.59,16.53,5.46,21,5.63,42.51,5.43,64-.13,14.14-.53,28.27.17,42.4.06,1.19.2,2.3,1.38,2.93.55-.42.34-.94.37-1.38.78-10.87,1.5-21.74,2-32.63,1-23.31,1-46.59-3.86-69.56-2.83-13.41-6.49-26.55-14.79-37.86-3.62-4.92-7.34-9.72-12.65-13-8.52-5.22-15.9-3.64-22.94,3.59-3.46,3.55-4.16,8-4.91,12.46-1.18,7.13-.56,14.35-.84,21.52-.24,6,0,12.35-3,17.57-2.89,4.92-3.34,9.55-2.3,14.88.94,4.81-.09,9.18-4.29,12.47-2.22,1.74-3.43,4.16-2.29,7a1.61,1.61,0,0,1-2.73-.3c-.42-.58-.74-1.22-1.11-1.82-.75-1.2-1.61-2.37-3.21-1.49-1.4.76-.81,2-.42,3.14.18.52.43,1,.6,1.54a1.32,1.32,0,0,1-.9,1.85c-1.43-.3-1.63-2.1-3-2.5-.33,2.41-.26,2.59,2.14,5.73-1.64,1.79-2.92.82-4.05-.57-1.58-1.95-1.87-5.62-.43-6.43,2.7-1.51,3.08-3.75,2.58-6.47-.33-1.78-.95-3.58-.51-5.38.32-1.31-.18-1.78-1.22-2.36-2.19-1.21-4.65-2-6.44-3.9a68.06,68.06,0,0,1-10.48-14.57c-5.69-10.69-8.48-22.22-9.87-34.14-.7-6-1.38-11.93-.72-18,.39-3.58,1-7.09,4-9.58.86-.72,1.78-1.86,3.1-1.07,1.51.89,2.9,2,3.06,4,.05.61,0,1.43-.7,1.64-3.81,1.23-3.31,4.72-3.74,7.5a14.45,14.45,0,0,0,.52,6.4,4.1,4.1,0,0,1,.2,3.06c-.68,1.55-.83,2.94,1.12,3.67-1.48,1.72-1.48,1.73-.08,3,.45.43,1,.71.72,1.55-.78,2.19,1,4.34.19,6.59-.17.5.57.85,1.06,1.13.17.09.27.32.35.43-.18.77-1.29.91-.95,2,.92,1,2.74,1.07,3.31,2.62-.3,1.13-1.69.83-2.15,1.74,0,2,2.06,2.16,2.93,3.28,0,1-1.08,1.48-.89,2.4.81,1.36,3.57.28,3.49,2.7-.63.69-1.53-.34-2,.62-.42,2.16,2.27,1.77,2.82,3.14-.28.77-.55,1.49-.86,2.33l3,1.92c-1.45,1.88-.49,2.88,1.24,3.65.7.31,1.48.73,1.21,1.76-.15.56-.08.9.59,1,1.15.09,1.08.93,1,1.75s-.28,1.42.58,2.07c2.16-.69,3.56.74,5,2.2,1.12,1.16,2.29,2.17,4.15,1.34a14.39,14.39,0,0,0-.34-1.43,398.35,398.35,0,0,1-14.49-57.83,47.46,47.46,0,0,1-.89-6.79c0-1.56.71-3.13,2.65-2.93a2.55,2.55,0,0,1,2.39,3.21c-.6,2,.08,3.71.57,5.5,4.69,17.12,10.52,33.93,14.2,51.33,1.28,6,2.47,12.07,1.52,18.31C252.52,181.74,251.82,182.77,252.39,184Zm7.3,22.69c2.08,2.81,3.93,5.32,5.8,7.82.41.55.67,1.08.22,1.71s-1.14.44-1.7.16a13.35,13.35,0,0,1-2-1.26c-1-.82-2-1.71-3.57-3a9.66,9.66,0,0,0,2.93,5.77q2,2,4.19,3.84c2.61,2.26,3,5,2,8.16-.77,2.53-2.32,4.65-3.6,6.91-.81,1.43-1.89,2.84-1.91,4.53-.1,5.78,1,11.12,5.57,15.26,1.55,1.41,2.31,3.44,3.21,5.36-1.92.74-3.19-.2-4.49-.85a38.15,38.15,0,0,0-10.11-3.92,2.34,2.34,0,0,0-2.75,1.21c-1.67,2.67-1.37,5.41-.46,8.21,1.34,4.14,3.47,8.11,2.57,12.93,4.72-1.66,9.29-1.65,13.86-1.76,5.12-.12,9.64-1.4,13.36-5.46a21.62,21.62,0,0,1,8.48-5.51,5.58,5.58,0,0,1,5.65.6c-8,3-15.2,8.29-16.13,11.76a1.3,1.3,0,0,0,1.3-.26c1.33-1.09,2.69-2.15,4-3.23,3.26-2.59,6.71-4.75,11-4.94,2.9-.13,5.55-4.61,3.83-7-2.83-4-4.36-8.57-6.76-12.73-1.8-3.11-4.12-5.57-7.67-6.68a2.74,2.74,0,0,0-3.16.87c-1.94,2.11-1.89,4.43-.81,6.82,1.2,2.66,2.63,5.21,3.79,7.89.63,1.45,1.16,3.06,0,4.77a6.38,6.38,0,0,1-2.36-2.05,28.21,28.21,0,0,0-6.47-7.18,52.66,52.66,0,0,1-5.83-5.54c-3.49-4-3.78-7.27-1-11.81a41,41,0,0,1,5.94-6.94c2.84-2.89,3-3.39.88-6.81a7.46,7.46,0,0,0-1.06-1.57A84.14,84.14,0,0,1,264.77,209,5.36,5.36,0,0,0,259.69,206.65Zm-35,64.84a10,10,0,0,1-1.45-4.4c-.48-5.48,2-9.93,4.9-14.24a4.6,4.6,0,0,0,1.26-2.71,33.8,33.8,0,0,1,2.61-12A91,91,0,0,0,236.46,222c.37-2.12.26-4.18-1.31-5.93a3.6,3.6,0,0,0-1.44,2.22c-1.05,3-2,6-3.2,8.92a10.49,10.49,0,0,1-7.58,6.8c-3.63.88-5.11,3.75-3.63,7.2.71,1.66,1.71,3.19,2.56,4.8a6.37,6.37,0,0,1-.34,7.12c-2.58,3.78-5,7.66-7.47,11.53a63.89,63.89,0,0,0-5.85,11.87c-2.33-1.27-2.94-2.94-2.07-5.08.59-1.46,1.3-2.88,2-4.29a8.52,8.52,0,0,0,1-3.85c0-2-1.25-2.86-2.89-3.59s-2.48.21-3.37,1.28c-2.79,3.39-3.89,7.54-5.26,11.57-.34,1-.42,2.23-1.33,3s-2.18.12-3.32-.07c.33,2.18,1.44,3,3.46,2.9s4.11-.06,6.16-.24c3.86-.33,7.57-.13,10.93,2.92.46-2.47,2.21-2,3.77-2.08,5.24-.18,10.38.67,15.54,1.4a69.17,69.17,0,0,0,10,1.24,16.69,16.69,0,0,1-3-7.55c-.3-2-.58-4.07-1-6.08a12,12,0,0,0-2.8-5.93c-3-3.37-6.76-2.67-8.19,1.56-.38,1.12-.56,2.3-.88,3.44A8.23,8.23,0,0,1,224.69,271.49Zm-45.93-3.29a3.69,3.69,0,0,1-1.26-3.44c.32-4.27,2.51-7.72,4.87-11.09,2.18-3.1,4.56-6.06,6-9.61a6.19,6.19,0,0,0,.33-4.78,8.14,8.14,0,0,1,1.58-8.22,41,41,0,0,1,3.74-3.95,62.25,62.25,0,0,0,5.95-5.76c1.22-1.51,2.43-3.06,2.39-5.75-1.41,1.13-2.51,2-3.56,2.88-1.67,1.44-3.08,3.2-5,4.29-1.27.72-2.5,1.29-3.89.1a2.68,2.68,0,0,0-3.33,0c-1.06.67-2,1.48-3,2.24-4,3.06-4.28,4.94-1,8.92a5.55,5.55,0,0,1,1.37,3.89c-.21,6.86-3.9,11.89-9.21,15.46a50,50,0,0,0-10.06,8.88c-.54.63-.85,1.54-2,1.71-1.09-2.11.05-3.59,1.35-5,1.63-1.81,3.8-3.14,4.85-5.45.48-1.05.78-2.25,0-3.14s-1.77-.08-2.61.23c-6,2.21-9.42,6.94-11.94,12.47-1.06,2.34-1.62,5-4.29,6.19-.28.13-.39.62-.77,1.25,2.85.5,4.43,2.5,6.23,4.23,2.44,2.34,3,2.27,5.11-.23,2.64-3.14,5.71-3.87,8.68-1.81,3.26,2.27,6.9,3.85,10.31,5.83a8.93,8.93,0,0,0,7.78.63c.78-.29,1.41-.64,1.29-1.68-.36-3.18.77-6.06,1.83-9a15,15,0,0,0,1.27-5.51c0-1.37.3-3.07-1.28-3.79a4.68,4.68,0,0,0-4.75.42,20.72,20.72,0,0,0-2.09,1.9C181.62,263.4,181,266.22,178.76,268.2Zm87,59.63v20.4c-.8-.16-1-.73-1.25-1.17q-5.77-8.85-11.56-17.7c-.45-.69-.72-1.65-1.83-1.65-2.18,0-4.37,0-6.66,0V358a20.52,20.52,0,0,0,6-.17v-20.8c4.64,6.43,8.83,12.92,13,19.4.45.69.72,1.71,1.79,1.68,2.1-.05,4.22.24,6.31-.18V327.83Zm-62.3,7c1.62-1.53,3-2.89,4.5-4.26-3.6-3.06-8.06-3.81-12.72-3.6-8,.36-13.86,5.66-14.9,13.3-1.12,8.26,2.95,15.45,10.17,17.69,5.86,1.82,11.54.89,17.05-1.51.65-.28,1.32-.58,1.32-1.48V340.09H197a18.27,18.27,0,0,0,.1,5.42h5.17c.44,7.39,1.43,7.53-6,7.77-5.24.16-9-3.47-9.66-8.79-.72-5.87,2-10.41,7.12-11.78A11,11,0,0,1,203.46,334.8Zm-77.78-7V358a20,20,0,0,0,5.77-.11v-12.2c3.2-.38,3.2-.38,4.51,2,1.63,3,3.24,5.95,4.89,8.91.33.59.51,1.46,1.37,1.48,2.07.05,4.13,0,6.58,0L141,345l1-.44c4-1.66,5.75-4.5,5.45-8.93-.26-3.84-2.59-6.62-6.74-7.45C135.78,327.19,130.74,327.83,125.68,327.77ZM221.83,333h14.1v-5.15H216V358h20.75v-5.37h-15v-7.41h13.47c0-1.93.29-3.57-.23-5.43h-13.2Zm-67.69-5.17V358h21.05c-.12-1.85.26-3.54-.31-5.4h-14.8v-7.37h13.34V339.8H160.1a32.84,32.84,0,0,1,0-6.65h14.18a20.87,20.87,0,0,0,0-5.3Zm150.51,26.73c3.22,3.78,7.45,4.64,12,4.15,5.21-.56,8.66-3.9,9.11-8.42.52-5.13-1.51-8-7.1-9.92-1.56-.55-3.15-1-4.67-1.7s-2.38-1.58-2.14-3.29a3.32,3.32,0,0,1,2.81-2.82c2.71-.72,4.94.2,6.9,2.17a33.82,33.82,0,0,0,4.09-4.52c-4.45-4-12-4.43-16.59-1a8.49,8.49,0,0,0,1.57,14.71c1.95.86,4,1.44,6,2.21s3.46,1.85,2.91,4.2-2.35,2.78-4.34,3c-2.7.26-4.62-1.17-6.42-3.17Zm-12.19,3.29V333.09h9v-5.2H277.55v5.3h9v24.9c1.66,0,3.07,0,4.48,0A11.76,11.76,0,0,0,292.46,357.87ZM217,305.74c1.39,1.4,1.39,1.38,3.21,1.5a67.28,67.28,0,0,0,31.39-5.41c5.44-2.33,11.09-4.18,15.89-7.78a24.43,24.43,0,0,0,7.67-8.88,6.55,6.55,0,0,0-1.11.56c-6.13,5.82-13.3,10.11-20.66,14.11-2.38,1.29-4.74,2.63-7.66,2.4a11.57,11.57,0,0,0-3.71.66c-6.3,1.66-12.65,2.61-19.19,1.57A7.94,7.94,0,0,0,217,305.74Zm80.69-159c3.09-1.81-1.81-3.29,0-5-1.56-1.46.05-3.93-1.68-5.18.05-1,1-1.38.92-2.24a6.05,6.05,0,0,1-1.94-5.39c.09-.74-.05-1.33-.69-1.57-1.61-.61-1.71-1.7-1-3-1.1-.6-2-1.38-3.34-.46.33,1.65.64,3.34,1,5,1.69,8,4.26,15.83,5.2,24,.37,3.17,1.63,3.82,5,2.53-.58-.85-2.14-.89-1.83-2.43A8,8,0,0,0,297.66,146.75ZM156.19,128.8c-2.94,2.42-3.65,5.68-4.62,8.82-2.61,8.39-5,16.82-3.71,25.77.26,1.78.44,3.64,1.64,5.28,1.09-1.95.54-3.86.75-5.68a90.52,90.52,0,0,1,1.36-10.16c.43-1.84.17-3.75.81-5.48,1-2.54,1.91-5,1.05-7.76C155.73,138,156.64,134.48,156.19,128.8Zm-15.43,85.79c.06,13.31,1.29,26.47-.89,39.75,2.8-1.43,2.69-1.44,3-4,.38-2.89,2.07-5.7.43-8.7a.51.51,0,0,1,.11-.43c2.4-2.26-.59-5.24,1-7.6-1.67-2.83.53-5.82-.43-8.85-.62-1.93.31-4.34.43-6.54C144.66,214.77,144.52,214.67,140.76,214.59Zm161.77-28c-.06-1,1.31-1.39.76-1.84-1.82-1.5-.29-3.38-.63-5.05-.53-2.62-.07-5.41-2.2-7.36-.07-.9,1.15-1.08.83-1.73-1.18-2.35-.13-4.63,0-7,.1-1.61-.25-3-2.68-4,.38,12.8-1.27,25.26,2.6,37.35h1.23c.88-2.41-.67-4.93.07-7.86.15-.19,1.36.25,1.77-.89Zm-11.22-29.42c-.48-1.23,1-1.26.4-2-1.51-2,0-4.36-1-6.48-.32-.66-1.08-1.37-.89-2.47a17.59,17.59,0,0,0-1.26-9.66,26.67,26.67,0,0,1-1.72-6.35c-.22-1.63,0-3.6-2.68-3.47-.41,0-.9-.8-1.29-1.28-.58-.71-1.08-1.5-2.1-1.62a2.15,2.15,0,0,0,.22,2.53,32,32,0,0,1,3.76,8.89c1.63,6.2,4.61,12.09,4.31,18.75a7.33,7.33,0,0,0,.83,3.66,3.87,3.87,0,0,0,4,2.44C293.6,158.25,291.87,158,291.31,157.14ZM173.82,284.77l-.65.76c2.82,2.61,5.73,5.13,8.41,7.88a12,12,0,0,0,5.11,3.25c8.17,2.52,16.05.26,23.92-1.64,1.31-.31.87-1.16.3-2a38.11,38.11,0,0,1-9,1.08c-3.61.08-7.25,0-10.8.91-2.79.71-5.2-.84-7.67-1-.39-1.33,1.08-2.18.07-3.21A23.15,23.15,0,0,0,173.82,284.77ZM149.68,132.62c-4.44,4.8-6.77,10.52-8.05,16.9-1.82,9.14-2.2,15.76-.26,19.27C145.4,156.92,144.35,144.05,149.68,132.62ZM165,144.76c-.37,1.27-.75,2.38-1,3.52-1.46,6.13-1.52,12.51-3.13,18.62a1.59,1.59,0,0,0,.31,1.32,13.65,13.65,0,0,1,2.11,5.67c2.74-4.42,2.31-8.87,1.64-13.53,3-1.2.62-2.81,0-4.23,2-1.34,1.85-1.33,1.69-3.5a5.48,5.48,0,0,1,2.08-4.64,1.76,1.76,0,0,0,.62-1.64c0-.75-.55-1.07-1.26-1.15C167.12,145.09,166.2,144.94,165,144.76Zm-21.49,65a270.44,270.44,0,0,1,.53-35.44c-1.72,2.39-3.64,4.59-3.57,7.75,0,2.12-.07,4.25-.15,6.38-.13,3.7-.41,7.41-.38,11.11S140.73,206.89,143.53,209.77Zm13.4-38.64h.77V158.86c.65-.25,2-.36,1.06-1.74-1.06-1.61-.6-2.8,1.27-3.77-1.08-1-.21-2.16-.27-3a13.86,13.86,0,0,1,2.78-9.66c.37-.5-.11-1.33-.9-1.3-1.64.06-3.28,0-3.83,2.24a88.88,88.88,0,0,0-2.61,13.71A35.76,35.76,0,0,0,156.93,171.13Zm160.76,29.69a8.77,8.77,0,0,0,.1-1.14c-.14-3.54-.45-7.07-.38-10.6,0-1.86-.79-3.72-.28-5.48.6-2.07.31-4.17.26-6.14-.09-3.19.54-6.67-1.69-9.55a.93.93,0,0,1,0-.9c1.84-2.23-.62-3.73-.89-5.65-.53,1.29-1.76,2.15-1.52,3.76,1.19,8.11,1.49,16.31,2.34,24.46C316,193.39,316.22,197.25,317.69,200.82ZM276.45,136c2.35,8.52,4.64,17,5.22,26.06,3.72-.64,3.2,3.4,5.34,4.64.58-.86.23-1.4-.33-1.93-.33-.3-1-.66-.63-1.1,1.22-1.49,0-2.26-.79-3.17a1.81,1.81,0,0,1-.5-1.73c.66-2.81-1-5.34-1.45-7.95-.52-3-1.36-6.25-1.88-9.3C280.87,138.23,279.77,136.52,276.45,136ZM151.8,171.3c-1.2,2.16-.78,4.35-2.11,5.92a11.87,11.87,0,0,0-2.64,7.91,152.05,152.05,0,0,0,.4,15.24c.2,2.36,2,4.73,4.06,5-.74-4.1-1.68-8.13-1.06-12.3.12-.79-1-1.68-.57-2.45,1-1.8-.49-4.13,1.32-5.72.13-.11.06-.7-.11-.88-1.37-1.39-.66-2.93-.39-4.44A43.84,43.84,0,0,0,151.8,171.3Zm-1.43,61.59c.48-.67,1.27-1.29,1.3-1.93.17-3.86-.68-7.69-.39-11.56,0-.56-1.16-.85-.61-1.59,1-1.37.29-2.53-.3-3.72a2.52,2.52,0,0,1,.08-2.64c1-1.74-.08-3.32-2.37-3.59a12.4,12.4,0,0,0-.2,4.42c.33,4.95.62,9.92,1.16,14.85a51.21,51.21,0,0,1-2.24,22c.65-.23,1.13-.28,1.17-.43.47-2,3.13-3.17,1.9-5.7-.19-.39.15-.75.53-.93,1.51-.7.94-1.7.4-2.7s-1.27-1.78.31-2.44c.77-.33.59-1.08.38-1.66A22.57,22.57,0,0,0,150.37,232.89ZM165.75,177a44.15,44.15,0,0,0-3.26,21.48,5.82,5.82,0,0,0,4.21,5.11,39.61,39.61,0,0,1-.47-6.75c0-1.4.8-3,.27-3.95-1.39-2.41,2.92-4.6-.21-6.54.62-.81,1.71-.26,1.92-1.56C165.6,183,168.45,179.53,165.75,177Zm146.68,52.09a5.27,5.27,0,0,1-.68-5.67c1.46-3.18.77-6.57.48-9.69-.33-3.54,0-7-.06-10.49,0-.84.41-1.94-.91-2-1.13,0-1.78.53-1.7,1.95.14,2.51,0,5,0,7.56-.05,7.79-.67,15.61,1.07,23.32a10.18,10.18,0,0,0,1.21,3.7c.88-1.31-1-2.53.17-3.4s.71-1.59,0-2.31C311,230.94,310.7,229.94,312.43,229.07Zm-21.54-65.33c-1,10.67-.58,20.68,2.47,30.53.34-3.36,0-6.83,1.72-10.2-1.6-.78-1-2.23-.74-3.73.23-1.35,1.18-2.87.22-4.12-1.72-2.23-1.4-4.66-1.28-7.16C293.37,167.16,293.44,165.15,290.89,163.74Zm16.73-7.39c-.92.31-.79.76-.81,1.11-.7,11.28,1.6,22.44,1.3,33.7a5.1,5.1,0,0,0,.29,1.86c.47,1.33.55,2.89,1.8,3.79,2.19-2.71,1.34-5.88.79-8.49-.42-2-.29-4-.6-6-.22-1.44.3-3.11-.14-4.79-.25-1-1.61-1.47-1.12-2.39,1.4-2.66-.09-5.18-.22-7.74C308.72,163.74,308.08,160.1,307.62,156.35Zm-2.29,41.94c-3.83,2.88-5.72,5.7-4.8,9.89.43,2,.32,4.09.61,6.11A82,82,0,0,0,306,232.21c-.4-2.82-.24-5.63-1.21-8.45-.69-2-1.7-4.61.29-6.79l-1.4-2c0-1.1,1.28-1.15,1.16-2.06C303.51,208.26,303.82,203.55,305.33,198.29Zm-26.88-27c-.68-7.92.08-16-3.9-23.28-1.16-.25-1.6.52-1.75,1.41a21.49,21.49,0,0,0-.49,4.21c.1,4.33,1.58,8.5,1.65,12.85,0,.23.09.63.19.65C276.52,167.59,277,169.85,278.45,171.32ZM157.78,205c-1-10,1.59-19.76,2.19-29.85-4.4,4.37-4.4,9.79-5.06,15S153.9,200.54,157.78,205Zm-22.72-28.54c-2.85,5.5-3.36,35.16,1.65,40.52a11.92,11.92,0,0,0,0-1.7c-.43-2.56-.89-5.12-1.35-7.68-.38-2.06.78-4.29-.72-6.25-.11-.15.21-.76.47-1a1.49,1.49,0,0,0,.36-1.72c-1.14-3.73-.63-7.49-.19-11.25A33.92,33.92,0,0,0,135.06,176.41Zm37.19,5.07c1.15-1.64.11-2.75-.45-3.86s-1.45-1.82.23-2.8c1-.59.22-1.51-.39-2.17s-1.15-1.43,0-2.09c.69-.38.54-.8.29-1.36a3.17,3.17,0,0,1,.21-3.39c2.25-2.72,1.35-5.76,1.18-8.73-.06-1-.45-2-1.54-2.12-1.24-.16-1.36,1.1-1.38,1.82-.22,6.16-3.48,12.28-.28,18.49a5.69,5.69,0,0,1,.23,1.4A11.68,11.68,0,0,0,172.25,181.48Zm144.9,23.74c0,3.39.07,6.61,0,9.83-.23,8.51-1,17-.4,25.53a24.84,24.84,0,0,0,1.61,8.51c0-5.29-.45-10.54-.3-15.81.25-8.67.72-17.33.53-26C318.55,206.44,319,205.23,317.15,205.22ZM135.61,221.14c-1.28.87-1.3.87-1.2,1.92a163.18,163.18,0,0,1-.24,32.1c-.23,2.12-.44,4.24-.71,6.8,2-2.45,2.35-3.79,2.45-7.86,0-1.31-.32-2.76.65-3.86a3.11,3.11,0,0,0,.34-3.72c-.53-1.18-.87-2.55-.09-3.57a2.8,2.8,0,0,0,.38-2.62,21.4,21.4,0,0,1-.37-7.05,2.78,2.78,0,0,0-.15-1.6c-1-1.78-.8-3.63-.65-5.53C136.14,224.49,136.67,222.75,135.61,221.14Zm27.16-14.6c-.25,8.26-.6,16.27.61,24.87a18.38,18.38,0,0,0,2.49-9.35c0-4.31-.2-8.62-.4-12.92C165.4,207.8,164.75,206.76,162.77,206.54Zm-7.33,33.72a11.55,11.55,0,0,0,1-.7c3-3.15.87-7.36,2.27-11,1.08-2.78.32-6-.17-9-.39-2.44,1.07-5.19-1.37-7.28-.58-.5.24-1.19-.17-1.74-1.6.59-1.66.6-1.42,2.26C156.8,221.78,157.33,230.78,155.44,240.26Zm61.06,45c9.05-1.74,17.56,2.62,26.57,3.29-.32-2.5-.31-2.51-1.64-2.66-2.65-.32-5.32-.5-7.94-.94-5.78-1-11.67-1.26-17.34-3-.76-.23-2.43-.92-3.45.64-.77,1.16-1.07,2-.08,3.12.38-1,.34-2.44,1.6-2.68C215.67,282.77,215.51,284.61,216.5,285.28ZM134.46,170c2.27-4.55,2.27-9,2-13.54,0-.31-.2-.71-.07-.9,1.59-2.24.74-5.08,1.91-7.43a1.63,1.63,0,0,0-.21-2.12C133.71,151.36,131.78,163.82,134.46,170Zm45.89,42.56v-21c-1.94,1.44-2.24,3.38-2.6,5.27-.82,4.32.14,8.65-.05,13C177.63,211.15,178.14,211.94,180.35,212.51Zm127.09-62.79c-1.34-1.1-4.22-1.06-1.87-3.54.36-.39-.24-.68-.28-1a28.78,28.78,0,0,0-1.44-4.59c-.73-2.43-.36-5.06-.49-7.53-.17-3.07-2.46-5.1-2.09-8.22-2,1.29-2.22,1.63-1.47,3.45,2.66,6.45,3,13.33,3.72,20.14.21,2,.56,4,.84,5.95C305.84,152.9,305.46,150.73,307.44,149.72ZM296.66,217c-1.53-4.86.51-10.22-2.43-14.88,1.95-.92,2.21-2.4,1.45-4.33-2.59,1-3.9,2.6-3.42,5.4.35,2.09.41,4.24.86,6.31C293.73,212.22,294.55,214.88,296.66,217Zm-10.89-31.13a5.44,5.44,0,0,1-.31-4.5c1.47-3.72-.45-6.79-1.4-9.93-.46-1.53,0-3.27-1-4.66-.26.1-.45.11-.53.21a2.31,2.31,0,0,0-.31.63,13,13,0,0,0,.13,8.59c.86,2.87,2,5.68,1.73,8.76C284,186,284.46,186.28,285.77,185.89ZM254.47,239c2.29-3.65,2.88-9,1.17-10.29-.27,1,.69,2.17-.37,3.13-2-.62-3.22-2.42-5.16-3.41.19,2.09,2,4.23-.7,5.78-.14.08.05.74.09,1.13.31,2.85,1,5.67.56,9a3.81,3.81,0,0,0,1.15-3.6c-.15-1.64-.52-3.27-.61-4.92-.06-1.07.06-2.44,1.56-2.44,1.31,0,1.49,1.18,1.56,2.25S253.59,237.83,254.47,239ZM169.92,204.2c0,5.67-.61,11.13.07,17.11,1.32-1.09,2.09-1.74,2.13-2.86.13-3.77.52-7.5,1-11.24C173.4,205.19,172.44,204.12,169.92,204.2Zm114.29-8.34c-1.26,6.5,1.1,15.1,4.83,17.88-.65-2-2-4.08-1.76-6a12.56,12.56,0,0,0-1.67-8C287.17,197.48,286.86,196.49,284.21,195.86Zm-8.71-21.77c-2.13,2.3,1,14.38,4.13,17-.94-3.66-.43-7.31-.9-11.17C276.17,179.23,276.35,176.49,275.5,174.09ZM271.78,296.4c1.74,1.06,3.09-.26,4.58-.2,4.21.18,6.78-2.09,8.55-5.54,2.38-4.66,2.83-10.07,5.67-14.62-1.41.81-3.14,1.28-3.25,3.18-.28,4.72-2.22,8.79-4.75,12.66a4.24,4.24,0,0,1-2.52,1.93C277.28,294.61,274.54,295.53,271.78,296.4ZM190.92,286c3.92,4.83,9.5,6.66,12.69,4.16A14.26,14.26,0,0,0,190.92,286Zm-19.17-86.8c1.76-2.23,3.38-10.66,2.69-13.83a.89.89,0,0,0-.87.66c-.78,2,.48,4.78-2.43,5.89-.07,0,0,.29,0,.45-.24,1.79-.53,3.57-.72,5.36a4.54,4.54,0,0,0,1.2,3.92c.62.62,1.26,1,1.86-.06C173.31,200.55,172.13,200.27,171.75,199.21ZM275.22,281.6l-.25-1.13c-5.81.85-11.74.73-17.45,2.33a6.39,6.39,0,0,0-4.44,4.42C260.26,283.2,267.65,282.05,275.22,281.6Zm2.08-87.11c-2.15,5.67-1.34,10.28,2.4,12.43a17.89,17.89,0,0,1-.19-8.15C279.78,196.85,278.94,195.63,277.3,194.49Zm-35.48,99c-1.93-1.48-3.3-.7-4.57.27-2.79,2.13-5.4,4.53-8.83,5.72-.79.27-1.52.83-1.47,2.49C232.68,300.22,236.73,296.14,241.82,293.47ZM311.4,155.1c1.35-7.33.21-13.79-2.81-16.52C309.66,144.36,311.09,149.65,311.4,155.1Zm-40.85,48.41c2-3.07-.25-6.38,1.07-9.48.38-.88-.5-2-1.66-2.21-.76-.12-1.15.68-1,1.29.53,2.52-.16,5,.08,7.54C269.14,201.82,269.4,203,270.55,203.51Zm-80.47,78.78c2.19.19,4.38.36,6.57.58,3,.29,5.94.67,8.92.89.8.06,2.22.72,2.31-.7s-1.43-.94-2.22-1A53.94,53.94,0,0,0,190.08,282.29Zm22.88,5c1.73,5.52,4,10,7.78,14a2.62,2.62,0,0,0-.12-3.62C217.72,294.79,215.85,291.13,213,287.34ZM186.8,201.69c2.21-2.14,0-3.14-1.2-4.87a42.55,42.55,0,0,0-.83,9.16c0,1.46.92,2.18,2.68,1.62-.83-1.49-.79-2.74.7-3.47C188.07,203.1,187.29,202.67,186.8,201.69ZM273,292.63c4.83-.09,9.82-5,9.66-9.35C278.8,285.78,277.13,290.21,273,292.63Zm-89.81-6c2.38,4.19,5.3,5.81,9.12,4.88C189.31,289.53,188.07,285.2,183.2,286.62ZM160.05,124.73c-1.41,3-1,6.58.94,8.63C164.29,128.15,164,125.61,160.05,124.73Zm82.45,83c-.44,4.57,1.12,8.77,2.51,13C245.55,216.17,244.11,212,242.5,207.75Zm47.64-88.7a8.57,8.57,0,0,0,1.84-4.34,1.32,1.32,0,0,0-.92-1.7,4.32,4.32,0,0,0-3.44.24c-.82.53-.34,1.47.06,2.13C288.4,116.58,289.23,117.71,290.14,119.05ZM239.23,299.89c3.56-.41,6.71-.89,8.83-3.89-1.34-1.21-2.28-1.5-3.28,0-.53.78-1.58,1-2.46,1.3A4.85,4.85,0,0,0,239.23,299.89Zm23-12.27a6.25,6.25,0,0,0-4.64,4.49,1.51,1.51,0,0,0,.32,1.54,1,1,0,0,0,1.3,0A6.12,6.12,0,0,0,262.22,287.62ZM232,203.22c-.47,3.66,2,6.63-.08,9.54,1.1.64,1.92.51,2-.34C234,209.44,234.36,206.36,232,203.22Zm-19.37,43.52c-.54,3.39.65,6.28.56,9.4C215.07,252.78,214.93,249.45,212.59,246.74Zm33.27-4.35a6.36,6.36,0,0,0-7.6-5.22Zm6.66,53.43a27.75,27.75,0,0,0-4.82-8.32C248,291,249.18,294.06,252.52,295.82Zm-35-7.05c1.67,2.42,2,5.39,4.85,6.81C222.26,291.64,220.39,288.88,217.55,288.77Zm44.25-61.2.62-.73c-.95-3.23-4.41-3.22-6.49-5l-.37.47Zm-42-7.22c-2.17,2.43-1.55,5.25,1.71,7.36C219.72,225.56,222.2,222.47,219.83,220.35ZM197.4,232a4.19,4.19,0,0,0-1.65,2.22c3.63.88,1.09,5.05,3.79,7A58.77,58.77,0,0,0,197.4,232Zm46.8,3.08c-1-2-.94-4.09-1.71-6.18C240,231.63,240.61,233.68,244.2,235.05Zm-14.85,59.86c.86-.77,1.82-.94,2.43-2-1.25-.54-.93-3.48-3-2.23C227.16,291.66,228.38,293.31,229.35,294.91ZM203.56,244c-1.75,1.55-3.63,3-3.9,6C202.54,248.73,203.21,246.49,203.56,244Zm7.88-9.88a11,11,0,0,0,2.37,8.07C212.71,239.56,213.8,236.59,211.44,234.15Zm-37.27,44.51c1.2,2.56,6.09,5.11,8.71,4.7C179.65,282.38,177.38,280.17,174.17,278.66Zm106.29-161c.91,1.11,1.53,2.41,3.21,2.7.68-1.53.51-2.94-.72-3.85S281.17,116.8,280.46,117.68ZM312.87,246c-.48-1.21,0-2.34.21-3.48a2.35,2.35,0,0,0-1.65-2.91C311.47,242,311.36,244.1,312.87,246ZM198.74,259.1c3.5-1.43,3.79-2.17,2.35-5.65C199.52,255.05,200.07,257.46,198.74,259.1ZM153,128a4.71,4.71,0,0,0,2.54-3.23c.24-.67.39-1.42-.54-1.77a1.47,1.47,0,0,0-2,.73C152.26,125.1,152.45,126.44,153,128Zm9,152.13c2.88-1.14,4-3.12,5.6-5.49A7.76,7.76,0,0,0,162,280.17Zm63.94,16.7c.27-4.69.08-5.54-1.58-7.14C224.45,292.16,223.5,294.56,225.92,296.87Zm10.65-50.09c-.7-.69-1.48-1.13-1.76-.4-1.07,2.81-1.95,5.69-2.9,8.54C233.87,252.41,234,249,236.57,246.78Zm11-63.48c1-1.52.54-3,.73-4.36.12-.88-.5-1.06-1.2-1s-1.05.36-1,1C246.23,180.4,246.23,181.91,247.53,183.3ZM205.11,287.6a4.65,4.65,0,0,0,2.32,2.32,1.76,1.76,0,0,0,2-.16.8.8,0,0,0,.28-1,1.61,1.61,0,0,0-1.59-1.14C207.18,287.59,206.26,287.6,205.11,287.6Zm6.15-61.87c-.82.54-.8,1.25-.92,2.27,2-1.55,3,1.6,5,.75C214.69,226.55,212.7,226.5,211.26,225.73Zm3.7-2,.76,0a5.61,5.61,0,0,0-1.16-5.92Zm24,31.67c-.58,1.27-1.13,2.32-.32,3.43.44.59,1.09,1.22,2,.25A7.5,7.5,0,0,0,238.94,255.43Zm-31.18-15.74c-1.61-2.51.28-4.66.63-7.13C205.76,236.47,205.54,238.7,207.76,239.69Zm40.11,15c0-3.1-1.45-5.42-3.69-5.79A26.13,26.13,0,0,1,247.87,254.66Zm5-44.88a7.14,7.14,0,0,1,.17,3.86,3.36,3.36,0,0,0,2.3.45A15.11,15.11,0,0,0,252.9,209.78Zm49,62.06c-2.11,0-2.3.09-4.91,3.4A9.19,9.19,0,0,0,301.87,271.84Zm-53.34-38.43c-.69-1.34-.47-3.19-2.23-4.26C245.83,231.36,246.9,232.52,248.53,233.41Zm11.93,22.4c-.38-1.65-.37-2.91-1.86-3.51C257.6,254.15,258.17,255.13,260.46,255.81Zm-107,21.85c2.85,3,3.36,3.32,5.35,3.41C157.06,279.85,155.94,278.29,153.48,277.66Zm82-35.23c.87.45,1.73.28,2-.53.36-1.11-.75-1.29-1.48-1.73A2.62,2.62,0,0,0,235.49,242.43Zm3.44-14.25c1.83-1.69,1.87-2,.51-3.52C238.81,225.7,239,226.77,238.93,228.18Zm29.6-58.25c.27,1.81.8,2.6,2.48,2.2C270.77,170.85,269.87,170.53,268.53,169.93Zm-65.22,52.83c-.23,1.42-.07,2.21,1,2.44A2.7,2.7,0,0,0,203.31,222.76Zm67.52-57.4c-1.51,1.12-1,1.95.1,3.22C271.27,167.29,271.5,166.45,270.83,165.36Z"/><path class="cls-1" d="M252.39,184c-.57-1.19.13-2.22.29-3.23.95-6.24-.24-12.27-1.52-18.31-3.68-17.4-9.51-34.21-14.2-51.33-.49-1.79-1.17-3.46-.57-5.5a2.55,2.55,0,0,0-2.39-3.21c-1.94-.2-2.7,1.37-2.65,2.93a47.46,47.46,0,0,0,.89,6.79,398.35,398.35,0,0,0,14.49,57.83,14.39,14.39,0,0,1,.34,1.43c-1.86.83-3-.18-4.15-1.34-1.4-1.46-2.8-2.89-5-2.2-.86-.65-.64-1.38-.58-2.07s.14-1.66-1-1.75c-.67-.06-.74-.4-.59-1,.27-1-.51-1.45-1.21-1.76-1.73-.77-2.69-1.77-1.24-3.65l-3-1.92c.31-.84.58-1.56.86-2.33-.55-1.37-3.24-1-2.82-3.14.51-1,1.41.07,2-.62.08-2.42-2.68-1.34-3.49-2.7-.19-.92.93-1.4.89-2.4-.87-1.12-3-1.29-2.93-3.28.46-.91,1.85-.61,2.15-1.74-.57-1.55-2.39-1.64-3.31-2.62-.34-1.07.77-1.21.95-2-.08-.11-.18-.34-.35-.43-.49-.28-1.23-.63-1.06-1.13.76-2.25-1-4.4-.19-6.59.29-.84-.27-1.12-.72-1.55-1.4-1.31-1.4-1.32.08-3-2-.73-1.8-2.12-1.12-3.67a4.1,4.1,0,0,0-.2-3.06,14.45,14.45,0,0,1-.52-6.4c.43-2.78-.07-6.27,3.74-7.5.66-.21.75-1,.7-1.64-.16-2-1.55-3.07-3.06-4-1.32-.79-2.24.35-3.1,1.07-3,2.49-3.59,6-4,9.58-.66,6,0,12,.72,18,1.39,11.92,4.18,23.45,9.87,34.14A68.06,68.06,0,0,0,236,173.24c1.79,1.92,4.25,2.69,6.44,3.9,1,.58,1.54,1.05,1.22,2.36-.44,1.8.18,3.6.51,5.38.5,2.72.12,5-2.58,6.47-1.44.81-1.15,4.48.43,6.43,1.13,1.39,2.41,2.36,4.05.57-2.4-3.14-2.47-3.32-2.14-5.73,1.39.4,1.59,2.2,3,2.5a1.32,1.32,0,0,0,.9-1.85c-.17-.52-.42-1-.6-1.54-.39-1.12-1-2.38.42-3.14,1.6-.88,2.46.29,3.21,1.49.37.6.69,1.24,1.11,1.82a1.61,1.61,0,0,0,2.73.3c-1.14-2.88.07-5.3,2.29-7,4.2-3.29,5.23-7.66,4.29-12.47-1-5.33-.59-10,2.3-14.88,3.06-5.22,2.78-11.55,3-17.57.28-7.17-.34-14.39.84-21.52.75-4.48,1.45-8.91,4.91-12.46,7-7.23,14.42-8.81,22.94-3.59,5.31,3.25,9,8,12.65,13,8.3,11.31,12,24.45,14.79,37.86,4.84,23,4.86,46.25,3.86,69.56-.47,10.89-1.19,21.76-2,32.63,0,.44.18,1-.37,1.38-1.18-.63-1.32-1.74-1.38-2.93-.7-14.13-.3-28.26-.17-42.4.2-21.49,0-43-5.43-64-1.62-6.22-3.8-12-8.59-16.53-2.55-2.42-4.42-5.4-4.27-9.19,0-.3,0-.82-.17-.88-2.09-.9-3-3.14-5-4.48-.65,1.4.32,2,.91,2.73s1.18,1.4.28,2.24-1.53.14-2.23-.42a3.49,3.49,0,0,1-1.37-2.3,32.57,32.57,0,0,0-1.17-4.33,5.7,5.7,0,0,0-.9-1.66c-1.47-1.93-7.63-3.21-9.77-2-1.94,1.06-3.79,2.4-6.42,1.42a27,27,0,0,0-1,16.5c-2.23.21-2.24-2.31-4-2.33-1.25,1.35-1.3,3.1-1.21,4.81.11,1.89.42,3.76.66,5.64.4,3.24.71,6.28-2.51,8.67-1.81,1.34-2.06,3.92-2.11,6.11-.12,6.44-.51,12.79-3.6,18.64a2.87,2.87,0,0,0-.18.88c4,1.58,5.76,4.42,5.4,8.67a3.88,3.88,0,0,0,.94,3.24,4.34,4.34,0,0,1,.51,4.93c-1.82-.67-1.8-2.26-2.18-3.63-.43-1.56,0-4.15-2.54-3.72-2,.36-1.38,2.69-1.33,4.25a41.19,41.19,0,0,0,.61,4.37c-2.41.83-3.8,2.63-4.92,4.78-2.36,4.54-2.75,4.6-7,1.17-1.58,4-1.33,8.24-2.51,12.35-2.28-2,1-4.15-.52-6-.78-.46-1.21.59-2,.47l-1.12-1.33c-2.19.37-1.25,2.51-2.17,3.57-1.07-.77-.59-2.31-1.76-3.18l-3.55,4.5c-.22-1.07.08-2.45-1.41-2.32-1.14.1-1.27,1.22-1.5,2.15-.52,2.1.33,4.39-1,6.9-1.2-3.92.21-7.32.32-10.55-.93-.8-1.45.37-2.15.07s-2.21-3.62-1.83-4.33a1.17,1.17,0,0,1,2.11-.27c.9,1,1.64,2.12,2.51,3.14,1.55,1.85,2.74,1.86,4.43,0-.76-1.11-3.09-.57-2.9-2.8.12-1.44.5-3-.22-4.64-1.59,1.19-2.9.73-4.3-1.13-.72,3.17-3.38,4.24-4.92,6.3-1.24,1.66-1.35,3.67-1.26,5.67.13,2.68.57,5.36.26,8-.15,1.38.84,2.16,1.45,3.14,1.49,2.39,1.44,3.07-.83,4.79-1.34,1,0,2.6-1.09,3.79-1.23-1-1.56-3.35-4-2.42a10,10,0,0,0-1.28-6.58,7,7,0,0,1-.26-6.61c.34-.65.74-1.32-.13-1.83a1.52,1.52,0,0,0-1.92.45,4.42,4.42,0,0,0-1.43,3.15c0,2,0,4,0,6.32a2.38,2.38,0,0,1-1.65-2.74c.16-1.25.5-2.47.67-3.72s.47-2.71-1.18-2.83a2.67,2.67,0,0,0-2.69,2.51,4.65,4.65,0,0,0,.2,1.63,3.07,3.07,0,0,1-1.58,3.62c-2.32,1.18-3.18,3.08-3.27,5.57a31,31,0,0,1-.65,4c-1.68.13-2.28-.73-2.15-2.12s.43-2.8.68-4.19c.3-1.73.62-3.45-.5-5-.67-1-1.38-1.67-2.74-1.29-2.28.64-2.23-.8-2.12-2.48,2.24.09,4.5-1.39,6.14,1.06,1.29-1.22.53-3.07,2-4.46.37,2.8,0,5.53,1.58,7.93,1.25-.69,1.19-1.94,1.36-3,.3-2-.23-4.23,2.15-5.36.15-.07.24-.43.23-.64-.2-2.28,1.1-4.06,2-6s1.05-3.79-1.07-5.19c-1.42-.94-.81-2.42-.74-3.7.08-1.56.44-3.15-1.07-4.36a4.34,4.34,0,0,0-2.37,4.1,13.89,13.89,0,0,0,1.25,5.74c1.21,3.12.14,5.77-1.66,8.38-2.44-2.69-2.29-4.27.65-7-2.91-2.13-2.84-5.51-3.35-8.78-1.82.65-2.16,2-2.36,3.39a12.46,12.46,0,0,0,.52,4.2c.62,3.11-.11,4.64-3,5.82-2.1.86-4.21,1.53-3.64,4.6.15.84-.69,1.53-1.77,1.39-.5-6.44.06-8.76,4.5-8.94.22-1.34-.52-2.05-1.67-1.82-2.61.53-5.32.72-8,2,1.22,1.1,1.44,2.21.2,3.36-.33.31-.63.88-.23,1.28,2.39,2.42.58,5.35,1.11,8-2.14-3-3.87-5.89-3.31-9.88a25.77,25.77,0,0,0-1.44-12c-1.18,2.6-5,3.1-3.14,6.62-1.31.38-1.41-.29-1.34-1.23.34-4.21.31-8.37-1.73-12.26-.52-1,.19-1.92.16-3.51,1.78,2.1,3.84,3.17,2.54,6-.43.94,0,2.42-.15,3.7s1,.73,1.87.23.92-1.81,2-1.22a6.41,6.41,0,0,1,2.34,2.6c.11.19.21.59.15.63-2,1.31,0,1.94.46,2.81.35.68.77,1.31,1.22,2.05,1-1,0-2.26.82-3.2,2.91-.13,4.62,3.73,8,2.6a5.29,5.29,0,0,0-2-4.32c-1.47-1.43-3.09-2.69-4.63-4-.42-.36-1-.73-1.13-1.2-1.27-4.08-5.25-6.27-7-10a10.05,10.05,0,0,0-.71-1.23c-1-1.56-2.31-3.43-4.17-3-1.69.41-2.78,2.36-3.76,4a.9.9,0,0,0-.16.67c1.24,3.18-2,6.4.31,9.59-2.36-3.44-4.78-6.72-3.91-11.18.4-2.08.45-4.22.67-6.46,1.95.46,1.52,4.14,4.56,3.18-1.44-4.88-2.8-9.64-4.28-14.37a6.78,6.78,0,0,0-1.71-3.07c-2.79-2.35-2.6-5.5-2.71-8.61a15.27,15.27,0,0,0-1.36-6.53c-1.56,0-2.16,1.23-3.33,1.87a13.73,13.73,0,0,1-.92-8c.56-3.53-.77-6-3.12-8.2a14.15,14.15,0,0,0-4.32-2.75c-1.71-.69-3.72-1-4.05-3.18a1.16,1.16,0,0,0-1.28.92c-.59,1.94-1.5,3-3.79,2.08-1.16-.46-2.08.52-2.53,1.64a13.38,13.38,0,0,0-1.15,5.75,10,10,0,0,1-1.17,5,1.73,1.73,0,0,1-.63-.2c-3.25-2.54-3.28-2.51-4.79,1.32a13.76,13.76,0,0,1-2,3.76c-5.11,6.24-6.34,13.79-7.45,21.4-2.67,18.17-1.58,36.39-.51,54.59.92,15.78,1.7,31.55.49,47.34a5.4,5.4,0,0,1-.8,3.3c-.16-2.64-.35-4.91-.42-7.18-.57-18-3.33-35.85-4.74-53.79-1.34-17.05-1.79-34.07,1.67-51,3.26-15.9,9.89-30.17,21.19-41.92,8-8.31,19.18-6.38,24.56,3.81a49.14,49.14,0,0,1,3.1,7.68A124,124,0,0,1,181,149.5a52.66,52.66,0,0,0,3.82,15.34,27.29,27.29,0,0,0,9.06,11.63,10,10,0,0,0,15.41-5.15c2-6.71.81-13.3-.79-19.86-2.94-12.12-6.11-24.18-8.79-36.35-1.89-8.54-2.21-17.17.62-25.72,4.3-13,14.81-15.52,25.19-12.84,5.68,1.47,11.09,3.75,15.23,8.21A5.21,5.21,0,0,1,242.3,90c-1.67,7.11-.35,14.14,1.33,21.07,3.7,15.26,6.85,30.65,10.65,45.89,2,8.13,2.3,16.41-.28,24.57C253.73,182.43,253.81,183.67,252.39,184Zm-28.14,9c-1.88-.36-2.18-1.73-2.28-3.35-.08-1.25.43-2.62-.5-3.82a3,3,0,0,0-1.93,3.52c.71,3.45.05,6.69-1,10a9.68,9.68,0,0,0-.41,3,2.27,2.27,0,0,0,1.9,2.51c0-1.35-.06-2.52,0-3.69a5.76,5.76,0,0,1,1.34-3.7c.43-.47.91-1,1.6-.47s1.24.79.84,1.71c-.91,2.15-.13,4.18.48,6.21a7.08,7.08,0,0,1,.35,4c-.61,2.16,0,4.23.36,6.3a2.68,2.68,0,0,0,2.49,2.37,14.09,14.09,0,0,1-.34-4.57c.27-2.74,1.38-5.57-.83-8.1a2.24,2.24,0,0,1-.24-1.6c.43-2.75,0-5.69,1.86-8-.88-1.81-2.21-.72-3.28-.67-.51-.51-.41-1.08-.48-1.62,2.79-.65,5.56-1.28,7,2.87,1.34-3.42,2.58-6.16,1.63-9.45-2.63.93-1.19,3.84-2.82,5.17-2.87-.74-2.37-3.72-3.63-5.67C224.57,188.06,223.65,190.3,224.25,193Zm3.93-103.56a2.12,2.12,0,0,0,1.67-1.28c.65-1.51.86-3.12-.42-4.4-1.48-1.49-3.21-2.61-5.47-1.94a2.15,2.15,0,0,0-1.41,2C222.23,86.31,225,89.45,228.18,89.44Zm28.7,99.41c1.08,0,2.35.69,2.88-.71.4-1,1.15-2.18-.08-3.47A13,13,0,0,1,256.88,188.85Z"/><path class="cls-1" d="M259.69,206.65a5.36,5.36,0,0,1,5.08,2.31,84.14,84.14,0,0,0,11.84,13.77,7.46,7.46,0,0,1,1.06,1.57c2.09,3.42,2,3.92-.88,6.81a41,41,0,0,0-5.94,6.94c-2.82,4.54-2.53,7.78,1,11.81a52.66,52.66,0,0,0,5.83,5.54,28.21,28.21,0,0,1,6.47,7.18,6.38,6.38,0,0,0,2.36,2.05c1.14-1.71.61-3.32,0-4.77-1.16-2.68-2.59-5.23-3.79-7.89-1.08-2.39-1.13-4.71.81-6.82a2.74,2.74,0,0,1,3.16-.87c3.55,1.11,5.87,3.57,7.67,6.68,2.4,4.16,3.93,8.76,6.76,12.73,1.72,2.41-.93,6.89-3.83,7-4.33.19-7.78,2.35-11,4.94-1.35,1.08-2.71,2.14-4,3.23a1.3,1.3,0,0,1-1.3.26c.93-3.47,8.14-8.78,16.13-11.76a5.58,5.58,0,0,0-5.65-.6,21.62,21.62,0,0,0-8.48,5.51c-3.72,4.06-8.24,5.34-13.36,5.46-4.57.11-9.14.1-13.86,1.76.9-4.82-1.23-8.79-2.57-12.93-.91-2.8-1.21-5.54.46-8.21a2.34,2.34,0,0,1,2.75-1.21,38.15,38.15,0,0,1,10.11,3.92c1.3.65,2.57,1.59,4.49.85-.9-1.92-1.66-3.95-3.21-5.36-4.58-4.14-5.67-9.48-5.57-15.26,0-1.69,1.1-3.1,1.91-4.53,1.28-2.26,2.83-4.38,3.6-6.91,1-3.13.58-5.9-2-8.16q-2.15-1.85-4.19-3.84a9.66,9.66,0,0,1-2.93-5.77c1.52,1.27,2.52,2.16,3.57,3a13.35,13.35,0,0,0,2,1.26c.56.28,1.21.53,1.7-.16s.19-1.16-.22-1.71C263.62,212,261.77,209.46,259.69,206.65Zm11.75,13.46c-.61,1.79,0,2.74,1.41,3.33.55.24,1.32.09,1.28-.51C274,221.51,273.12,220.63,271.44,220.11Z"/><path class="cls-1" d="M224.69,271.49A8.23,8.23,0,0,0,227,267c.32-1.14.5-2.32.88-3.44,1.43-4.23,5.21-4.93,8.19-1.56a12,12,0,0,1,2.8,5.93c.38,2,.66,4,1,6.08a16.69,16.69,0,0,0,3,7.55,69.17,69.17,0,0,1-10-1.24c-5.16-.73-10.3-1.58-15.54-1.4-1.56.06-3.31-.39-3.77,2.08-3.36-3.05-7.07-3.25-10.93-2.92-2.05.18-4.11.1-6.16.24s-3.13-.72-3.46-2.9c1.14.19,2.31.89,3.32.07s1-1.94,1.33-3c1.37-4,2.47-8.18,5.26-11.57.89-1.07,1.72-2,3.37-1.28s2.9,1.6,2.89,3.59a8.52,8.52,0,0,1-1,3.85c-.7,1.41-1.41,2.83-2,4.29-.87,2.14-.26,3.81,2.07,5.08a63.89,63.89,0,0,1,5.85-11.87c2.46-3.87,4.89-7.75,7.47-11.53a6.37,6.37,0,0,0,.34-7.12c-.85-1.61-1.85-3.14-2.56-4.8-1.48-3.45,0-6.32,3.63-7.2a10.49,10.49,0,0,0,7.58-6.8c1.17-2.93,2.15-5.94,3.2-8.92a3.6,3.6,0,0,1,1.44-2.22c1.57,1.75,1.68,3.81,1.31,5.93A91,91,0,0,1,232,238.17a33.8,33.8,0,0,0-2.61,12,4.6,4.6,0,0,1-1.26,2.71c-2.93,4.31-5.38,8.76-4.9,14.24A10,10,0,0,0,224.69,271.49Zm-1.87-32.62c1.63-.33,2.13-1.14,1.72-2.45a.76.76,0,0,0-1.12-.52C222.16,236.59,222.35,237.62,222.82,238.87Z"/><path class="cls-1" d="M178.76,268.2c2.27-2,2.86-4.8,4.81-6.64a20.72,20.72,0,0,1,2.09-1.9,4.68,4.68,0,0,1,4.75-.42c1.58.72,1.25,2.42,1.28,3.79a15,15,0,0,1-1.27,5.51c-1.06,2.9-2.19,5.78-1.83,9,.12,1-.51,1.39-1.29,1.68a8.93,8.93,0,0,1-7.78-.63c-3.41-2-7.05-3.56-10.31-5.83-3-2.06-6-1.33-8.68,1.81-2.1,2.5-2.67,2.57-5.11.23-1.8-1.73-3.38-3.73-6.23-4.23.38-.63.49-1.12.77-1.25,2.67-1.23,3.23-3.85,4.29-6.19,2.52-5.53,5.94-10.26,11.94-12.47.84-.31,1.85-1.07,2.61-.23s.52,2.09,0,3.14c-1.05,2.31-3.22,3.64-4.85,5.45-1.3,1.44-2.44,2.92-1.35,5,1.11-.17,1.42-1.08,2-1.71a50,50,0,0,1,10.06-8.88c5.31-3.57,9-8.6,9.21-15.46a5.55,5.55,0,0,0-1.37-3.89c-3.25-4-3-5.86,1-8.92,1-.76,2-1.57,3-2.24a2.68,2.68,0,0,1,3.33,0c1.39,1.19,2.62.62,3.89-.1,2-1.09,3.37-2.85,5-4.29,1-.9,2.15-1.75,3.56-2.88,0,2.69-1.17,4.24-2.39,5.75a62.25,62.25,0,0,1-5.95,5.76,41,41,0,0,0-3.74,3.95,8.14,8.14,0,0,0-1.58,8.22,6.19,6.19,0,0,1-.33,4.78c-1.47,3.55-3.85,6.51-6,9.61-2.36,3.37-4.55,6.82-4.87,11.09A3.69,3.69,0,0,0,178.76,268.2Z"/><path class="cls-1" d="M265.76,327.83h5.87V358c-2.09.42-4.21.13-6.31.18-1.07,0-1.34-1-1.79-1.68-4.2-6.48-8.39-13-13-19.4v20.8a20.52,20.52,0,0,1-6,.17V327.71c2.29,0,4.48,0,6.66,0,1.11,0,1.38,1,1.83,1.65q5.81,8.83,11.56,17.7c.29.44.45,1,1.25,1.17Z"/><path class="cls-1" d="M203.46,334.8a11,11,0,0,0-9.78-2.09c-5.09,1.37-7.84,5.91-7.12,11.78.65,5.32,4.42,8.95,9.66,8.79,7.44-.24,6.45-.38,6-7.77h-5.17a18.27,18.27,0,0,1-.1-5.42h11.92v14.85c0,.9-.67,1.2-1.32,1.48-5.51,2.4-11.19,3.33-17.05,1.51-7.22-2.24-11.29-9.43-10.17-17.69,1-7.64,6.9-12.94,14.9-13.3,4.66-.21,9.12.54,12.72,3.6C206.5,331.91,205.08,333.27,203.46,334.8Z"/><path class="cls-1" d="M125.68,327.77c5.06.06,10.1-.58,15.08.41,4.15.83,6.48,3.61,6.74,7.45.3,4.43-1.43,7.27-5.45,8.93l-1,.44,7.79,13.09c-2.45,0-4.51,0-6.58,0-.86,0-1-.89-1.37-1.48-1.65-3-3.26-5.94-4.89-8.91-1.31-2.37-1.31-2.37-4.51-2v12.2a20,20,0,0,1-5.77.11Zm5.79,12.47c2.54,0,4.81.3,7.06-.27a3.31,3.31,0,0,0,2.8-3.55c0-1.94-1.27-2.83-2.85-3.24a23.11,23.11,0,0,0-7-.29Z"/><path class="cls-1" d="M221.83,333v6.73H235c.52,1.86.25,3.5.23,5.43H221.79v7.41h15V358H216V327.87h19.93V333Z"/><path class="cls-1" d="M154.14,327.85h20.1a20.87,20.87,0,0,1,0,5.3H160.07a32.84,32.84,0,0,0,0,6.65h13.32v5.41H160.08v7.37h14.8c.57,1.86.19,3.55.31,5.4H154.14Z"/><path class="cls-1" d="M304.65,354.58l4.14-4.43c1.8,2,3.72,3.43,6.42,3.17,2-.2,3.82-.78,4.34-3s-1-3.47-2.91-4.2-4.05-1.35-6-2.21a8.49,8.49,0,0,1-1.57-14.71c4.59-3.42,12.14-3,16.59,1a33.82,33.82,0,0,1-4.09,4.52c-2-2-4.19-2.89-6.9-2.17a3.32,3.32,0,0,0-2.81,2.82c-.24,1.71.77,2.69,2.14,3.29s3.11,1.15,4.67,1.7c5.59,2,7.62,4.79,7.1,9.92-.45,4.52-3.9,7.86-9.11,8.42C312.1,359.22,307.87,358.36,304.65,354.58Z"/><path class="cls-1" d="M292.46,357.87a11.76,11.76,0,0,1-1.41.21c-1.41,0-2.82,0-4.48,0v-24.9h-9v-5.3h23.87v5.2h-9Z"/><path class="cls-1" d="M217,305.74a7.94,7.94,0,0,1,5.83-1.27c6.54,1,12.89.09,19.19-1.57a11.57,11.57,0,0,1,3.71-.66c2.92.23,5.28-1.11,7.66-2.4,7.36-4,14.53-8.29,20.66-14.11a6.55,6.55,0,0,1,1.11-.56,24.43,24.43,0,0,1-7.67,8.88c-4.8,3.6-10.45,5.45-15.89,7.78a67.28,67.28,0,0,1-31.39,5.41C218.36,307.12,218.36,307.14,217,305.74Z"/><path class="cls-1" d="M297.66,146.75a8,8,0,0,1,1.67,6.24c-.31,1.54,1.25,1.58,1.83,2.43-3.39,1.29-4.65.64-5-2.53-.94-8.18-3.51-16-5.2-24-.36-1.68-.67-3.37-1-5,1.35-.92,2.24-.14,3.34.46-.7,1.32-.6,2.41,1,3,.64.24.78.83.69,1.57a6.05,6.05,0,0,0,1.94,5.39c.11.86-.87,1.27-.92,2.24,1.73,1.25.12,3.72,1.68,5.18C295.85,143.46,300.75,144.94,297.66,146.75Z"/><path class="cls-1" d="M156.19,128.8c.45,5.68-.46,9.2-2.72,10.79.86,2.73-.1,5.22-1.05,7.76-.64,1.73-.38,3.64-.81,5.48A90.52,90.52,0,0,0,150.25,163c-.21,1.82.34,3.73-.75,5.68-1.2-1.64-1.38-3.5-1.64-5.28-1.31-8.95,1.1-17.38,3.71-25.77C152.54,134.48,153.25,131.22,156.19,128.8Z"/><path class="cls-1" d="M140.76,214.59c3.76.08,3.9.18,3.72,3.6-.12,2.2-1,4.61-.43,6.54,1,3-1.24,6,.43,8.85-1.62,2.36,1.37,5.34-1,7.6a.51.51,0,0,0-.11.43c1.64,3-.05,5.81-.43,8.7-.35,2.59-.24,2.6-3,4C142.05,241.06,140.82,227.9,140.76,214.59Z"/><path class="cls-1" d="M302.53,186.56l1.76,1.62c-.41,1.14-1.62.7-1.77.89-.74,2.93.81,5.45-.07,7.86h-1.23c-3.87-12.09-2.22-24.55-2.6-37.35,2.43,1,2.78,2.43,2.68,4-.14,2.32-1.19,4.6,0,7,.32.65-.9.83-.83,1.73,2.13,1.95,1.67,4.74,2.2,7.36.34,1.67-1.19,3.55.63,5.05C303.84,185.17,302.47,185.53,302.53,186.56Z"/><path class="cls-1" d="M291.31,157.14c.56.81,2.29,1.11,2.52,2.9a3.87,3.87,0,0,1-4-2.44,7.33,7.33,0,0,1-.83-3.66c.3-6.66-2.68-12.55-4.31-18.75A32,32,0,0,0,281,126.3a2.15,2.15,0,0,1-.22-2.53c1,.12,1.52.91,2.1,1.62.39.48.88,1.3,1.29,1.28,2.65-.13,2.46,1.84,2.68,3.47a26.67,26.67,0,0,0,1.72,6.35,17.59,17.59,0,0,1,1.26,9.66c-.19,1.1.57,1.81.89,2.47,1.05,2.12-.49,4.52,1,6.48C292.32,155.88,290.83,155.91,291.31,157.14Z"/><path class="cls-1" d="M173.82,284.77a23.15,23.15,0,0,1,9.73,6.06c1,1-.46,1.88-.07,3.21,2.47.17,4.88,1.72,7.67,1,3.55-.89,7.19-.83,10.8-.91a38.11,38.11,0,0,0,9-1.08c.57.8,1,1.65-.3,2-7.87,1.9-15.75,4.16-23.92,1.64a12,12,0,0,1-5.11-3.25c-2.68-2.75-5.59-5.27-8.41-7.88Z"/><path class="cls-1" d="M149.68,132.62c-5.33,11.43-4.28,24.3-8.31,36.17-1.94-3.51-1.56-10.13.26-19.27C142.91,143.14,145.24,137.42,149.68,132.62Z"/><path class="cls-1" d="M165,144.76c1.18.18,2.1.33,3,.44.71.08,1.22.4,1.26,1.15a1.76,1.76,0,0,1-.62,1.64,5.48,5.48,0,0,0-2.08,4.64c.16,2.17.3,2.16-1.69,3.5.63,1.42,3,3,0,4.23.67,4.66,1.1,9.11-1.64,13.53a13.65,13.65,0,0,0-2.11-5.67,1.59,1.59,0,0,1-.31-1.32c1.61-6.11,1.67-12.49,3.13-18.62C164.27,147.14,164.65,146,165,144.76Z"/><path class="cls-1" d="M143.53,209.77c-2.8-2.88-3.54-6.47-3.57-10.2s.25-7.41.38-11.11c.08-2.13.2-4.26.15-6.38-.07-3.16,1.85-5.36,3.57-7.75A270.44,270.44,0,0,0,143.53,209.77Z"/><path class="cls-1" d="M156.93,171.13a35.76,35.76,0,0,1-1.73-15.77,88.88,88.88,0,0,1,2.61-13.71c.55-2.22,2.19-2.18,3.83-2.24.79,0,1.27.8.9,1.3a13.86,13.86,0,0,0-2.78,9.66c.06.82-.81,1.93.27,3-1.87,1-2.33,2.16-1.27,3.77.91,1.38-.41,1.49-1.06,1.74v12.27Z"/><path class="cls-1" d="M317.69,200.82c-1.47-3.57-1.71-7.43-2.1-11.24-.85-8.15-1.15-16.35-2.34-24.46-.24-1.61,1-2.47,1.52-3.76.27,1.92,2.73,3.42.89,5.65a.93.93,0,0,0,0,.9c2.23,2.88,1.6,6.36,1.69,9.55.05,2,.34,4.07-.26,6.14-.51,1.76.31,3.62.28,5.48-.07,3.53.24,7.06.38,10.6A8.77,8.77,0,0,1,317.69,200.82Z"/><path class="cls-1" d="M276.45,136c3.32.57,4.42,2.28,5,5.52.52,3.05,1.36,6.28,1.88,9.3.45,2.61,2.11,5.14,1.45,7.95a1.81,1.81,0,0,0,.5,1.73c.82.91,2,1.68.79,3.17-.36.44.3.8.63,1.1.56.53.91,1.07.33,1.93-2.14-1.24-1.62-5.28-5.34-4.64C281.09,153,278.8,144.47,276.45,136Z"/><path class="cls-1" d="M151.8,171.3a43.84,43.84,0,0,1-1.1,8.24c-.27,1.51-1,3.05.39,4.44.17.18.24.77.11.88-1.81,1.59-.33,3.92-1.32,5.72-.42.77.69,1.66.57,2.45-.62,4.17.32,8.2,1.06,12.3-2-.23-3.86-2.6-4.06-5a152.05,152.05,0,0,1-.4-15.24,11.87,11.87,0,0,1,2.64-7.91C151,175.65,150.6,173.46,151.8,171.3Z"/><path class="cls-1" d="M150.37,232.89a22.57,22.57,0,0,1,1.12,2.33c.21.58.39,1.33-.38,1.66-1.58.66-.79,1.56-.31,2.44s1.11,2-.4,2.7c-.38.18-.72.54-.53.93,1.23,2.53-1.43,3.75-1.9,5.7,0,.15-.52.2-1.17.43a51.21,51.21,0,0,0,2.24-22c-.54-4.93-.83-9.9-1.16-14.85a12.4,12.4,0,0,1,.2-4.42c2.29.27,3.37,1.85,2.37,3.59a2.52,2.52,0,0,0-.08,2.64c.59,1.19,1.34,2.35.3,3.72-.55.74.65,1,.61,1.59-.29,3.87.56,7.7.39,11.56C151.64,231.6,150.85,232.22,150.37,232.89Z"/><path class="cls-1" d="M165.75,177c2.7,2.55-.15,6.05,2.46,7.79-.21,1.3-1.3.75-1.92,1.56,3.13,1.94-1.18,4.13.21,6.54.53.93-.3,2.55-.27,3.95a39.61,39.61,0,0,0,.47,6.75,5.82,5.82,0,0,1-4.21-5.11A44.15,44.15,0,0,1,165.75,177Z"/><path class="cls-1" d="M312.43,229.07c-1.73.87-1.47,1.87-.4,3,.68.72,1.16,1.4,0,2.31s.71,2.09-.17,3.4a10.18,10.18,0,0,1-1.21-3.7c-1.74-7.71-1.12-15.53-1.07-23.32,0-2.52.15-5.05,0-7.56-.08-1.42.57-2,1.7-1.95,1.32,0,.89,1.14.91,2,.05,3.49-.27,6.95.06,10.49.29,3.12,1,6.51-.48,9.69A5.27,5.27,0,0,0,312.43,229.07Z"/><path class="cls-1" d="M290.89,163.74c2.55,1.41,2.48,3.42,2.39,5.32-.12,2.5-.44,4.93,1.28,7.16,1,1.25,0,2.77-.22,4.12-.26,1.5-.86,2.95.74,3.73-1.75,3.37-1.38,6.84-1.72,10.2C290.31,184.42,289.92,174.41,290.89,163.74Z"/><path class="cls-1" d="M307.62,156.35c.46,3.75,1.1,7.39,1.29,11.05.13,2.56,1.62,5.08.22,7.74-.49.92.87,1.43,1.12,2.39.44,1.68-.08,3.35.14,4.79.31,2,.18,4,.6,6,.55,2.61,1.4,5.78-.79,8.49-1.25-.9-1.33-2.46-1.8-3.79a5.1,5.1,0,0,1-.29-1.86c.3-11.26-2-22.42-1.3-33.7C306.83,157.11,306.7,156.66,307.62,156.35Z"/><path class="cls-1" d="M305.33,198.29c-1.51,5.26-1.82,10-.52,14.64.12.91-1.13,1-1.16,2.06l1.4,2c-2,2.18-1,4.77-.29,6.79,1,2.82.81,5.63,1.21,8.45a82,82,0,0,1-4.83-17.92c-.29-2-.18-4.12-.61-6.11C299.61,204,301.5,201.17,305.33,198.29Z"/><path class="cls-1" d="M278.45,171.32c-1.47-1.47-1.93-3.73-4.3-4.16-.1,0-.18-.42-.19-.65-.07-4.35-1.55-8.52-1.65-12.85a21.49,21.49,0,0,1,.49-4.21c.15-.89.59-1.66,1.75-1.41C278.53,155.33,277.77,163.4,278.45,171.32Z"/><path class="cls-1" d="M157.78,205c-3.88-4.41-3.54-9.67-2.87-14.9s.66-10.58,5.06-15C159.37,185.19,156.8,194.93,157.78,205Z"/><path class="cls-1" d="M135.06,176.41a33.92,33.92,0,0,1,.21,10.92c-.44,3.76-1,7.52.19,11.25a1.49,1.49,0,0,1-.36,1.72c-.26.24-.58.85-.47,1,1.5,2,.34,4.19.72,6.25.46,2.56.92,5.12,1.35,7.68a11.92,11.92,0,0,1,0,1.7C131.7,211.57,132.21,181.91,135.06,176.41Z"/><path class="cls-1" d="M172.25,181.48a11.68,11.68,0,0,1-1.88-4.81,5.69,5.69,0,0,0-.23-1.4c-3.2-6.21.06-12.33.28-18.49,0-.72.14-2,1.38-1.82,1.09.14,1.48,1.08,1.54,2.12.17,3,1.07,6-1.18,8.73a3.17,3.17,0,0,0-.21,3.39c.25.56.4,1-.29,1.36-1.17.66-.67,1.39,0,2.09s1.4,1.58.39,2.17c-1.68,1-.76,1.77-.23,2.8S173.4,179.84,172.25,181.48Z"/><path class="cls-1" d="M317.15,205.22c1.87,0,1.4,1.22,1.42,2.05.19,8.68-.28,17.34-.53,26-.15,5.27.3,10.52.3,15.81a24.84,24.84,0,0,1-1.61-8.51c-.57-8.52.17-17,.4-25.53C317.22,211.83,317.15,208.61,317.15,205.22Z"/><path class="cls-1" d="M135.61,221.14c1.06,1.61.53,3.35.41,5-.15,1.9-.32,3.75.65,5.53a2.78,2.78,0,0,1,.15,1.6,21.4,21.4,0,0,0,.37,7.05,2.8,2.8,0,0,1-.38,2.62c-.78,1-.44,2.39.09,3.57a3.11,3.11,0,0,1-.34,3.72c-1,1.1-.62,2.55-.65,3.86-.1,4.07-.46,5.41-2.45,7.86.27-2.56.48-4.68.71-6.8a163.18,163.18,0,0,0,.24-32.1C134.31,222,134.33,222,135.61,221.14Z"/><path class="cls-1" d="M162.77,206.54c2,.22,2.63,1.26,2.7,2.6.2,4.3.4,8.61.4,12.92a18.38,18.38,0,0,1-2.49,9.35C162.17,222.81,162.52,214.8,162.77,206.54Z"/><path class="cls-1" d="M155.44,240.26c1.89-9.48,1.36-18.48.12-27.47-.24-1.66-.18-1.67,1.42-2.26.41.55-.41,1.24.17,1.74,2.44,2.09,1,4.84,1.37,7.28.49,3.07,1.25,6.27.17,9-1.4,3.6.76,7.81-2.27,11A11.55,11.55,0,0,1,155.44,240.26Z"/><path class="cls-1" d="M216.5,285.28c-1-.67-.83-2.51-2.28-2.22-1.26.24-1.22,1.68-1.6,2.68-1-1.08-.69-2,.08-3.12,1-1.56,2.69-.87,3.45-.64,5.67,1.73,11.56,2,17.34,3,2.62.44,5.29.62,7.94.94,1.33.15,1.32.16,1.64,2.66C234.06,287.9,225.55,283.54,216.5,285.28Z"/><path class="cls-1" d="M134.46,170c-2.68-6.13-.75-18.59,3.59-24a1.63,1.63,0,0,1,.21,2.12c-1.17,2.35-.32,5.19-1.91,7.43-.13.19.05.59.07.9C136.73,160.93,136.73,165.4,134.46,170Z"/><path class="cls-1" d="M180.35,212.51c-2.21-.57-2.72-1.36-2.65-2.8.19-4.31-.77-8.64.05-13,.36-1.89.66-3.83,2.6-5.27Z"/><path class="cls-1" d="M307.44,149.72c-2,1-1.6,3.18-3.08,4.66-.28-2-.63-4-.84-5.95-.72-6.81-1.06-13.69-3.72-20.14-.75-1.82-.58-2.16,1.47-3.45-.37,3.12,1.92,5.15,2.09,8.22.13,2.47-.24,5.1.49,7.53a28.78,28.78,0,0,1,1.44,4.59c0,.32.64.61.28,1C303.22,148.66,306.1,148.62,307.44,149.72Z"/><path class="cls-1" d="M296.66,217c-2.11-2.14-2.93-4.8-3.54-7.5-.45-2.07-.51-4.22-.86-6.31-.48-2.8.83-4.41,3.42-5.4.76,1.93.5,3.41-1.45,4.33C297.17,206.8,295.13,212.16,296.66,217Z"/><path class="cls-1" d="M285.77,185.89c-1.31.39-1.76.09-1.68-.9.27-3.08-.87-5.89-1.73-8.76a13,13,0,0,1-.13-8.59,2.31,2.31,0,0,1,.31-.63c.08-.1.27-.11.53-.21.95,1.39.53,3.13,1,4.66.95,3.14,2.87,6.21,1.4,9.93A5.44,5.44,0,0,0,285.77,185.89Z"/><path class="cls-1" d="M254.47,239c-.88-1.14-.68-2.27-.75-3.35s-.25-2.25-1.56-2.25c-1.5,0-1.62,1.37-1.56,2.44.09,1.65.46,3.28.61,4.92a3.81,3.81,0,0,1-1.15,3.6c.46-3.35-.25-6.17-.56-9,0-.39-.23-1.05-.09-1.13,2.66-1.55.89-3.69.7-5.78,1.94,1,3.17,2.79,5.16,3.41,1.06-1,.1-2.11.37-3.13C257.35,229.93,256.76,235.32,254.47,239Z"/><path class="cls-1" d="M169.92,204.2c2.52-.08,3.48,1,3.22,3-.5,3.74-.89,7.47-1,11.24,0,1.12-.81,1.77-2.13,2.86C169.31,215.33,169.89,209.87,169.92,204.2Z"/><path class="cls-1" d="M284.21,195.86c2.65.63,3,1.62,1.4,3.93a12.56,12.56,0,0,1,1.67,8c-.25,1.87,1.11,4,1.76,6C285.31,211,283,202.36,284.21,195.86Z"/><path class="cls-1" d="M275.5,174.09c.85,2.4.67,5.14,3.23,5.8.47,3.86,0,7.51.9,11.17C276.48,188.47,273.37,176.39,275.5,174.09Z"/><path class="cls-1" d="M271.78,296.4c2.76-.87,5.5-1.79,8.28-2.59a4.24,4.24,0,0,0,2.52-1.93c2.53-3.87,4.47-7.94,4.75-12.66.11-1.9,1.84-2.37,3.25-3.18-2.84,4.55-3.29,10-5.67,14.62-1.77,3.45-4.34,5.72-8.55,5.54C274.87,296.14,273.52,297.46,271.78,296.4Z"/><path class="cls-1" d="M190.92,286a14.26,14.26,0,0,1,12.69,4.16C200.42,292.67,194.84,290.84,190.92,286Z"/><path class="cls-1" d="M171.75,199.21c.38,1.06,1.56,1.34,1.68,2.39-.6,1.07-1.24.68-1.86.06a4.54,4.54,0,0,1-1.2-3.92c.19-1.79.48-3.57.72-5.36,0-.16,0-.43,0-.45,2.91-1.11,1.65-3.92,2.43-5.89a.89.89,0,0,1,.87-.66C175.13,188.55,173.51,197,171.75,199.21Z"/><path class="cls-1" d="M275.22,281.6c-7.57.45-15,1.6-22.14,5.62a6.39,6.39,0,0,1,4.44-4.42c5.71-1.6,11.64-1.48,17.45-2.33Z"/><path class="cls-1" d="M277.3,194.49c1.64,1.14,2.48,2.36,2.21,4.28a17.89,17.89,0,0,0,.19,8.15C276,204.77,275.15,200.16,277.3,194.49Z"/><path class="cls-1" d="M241.82,293.47c-5.09,2.67-9.14,6.75-14.87,8.48,0-1.66.68-2.22,1.47-2.49,3.43-1.19,6-3.59,8.83-5.72C238.52,292.77,239.89,292,241.82,293.47Z"/><path class="cls-1" d="M311.4,155.1c-.31-5.45-1.74-10.74-2.81-16.52C311.61,141.31,312.75,147.77,311.4,155.1Z"/><path class="cls-1" d="M270.55,203.51c-1.15-.53-1.41-1.69-1.53-2.86-.24-2.51.45-5-.08-7.54-.13-.61.26-1.41,1-1.29,1.16.18,2,1.33,1.66,2.21C270.3,197.13,272.59,200.44,270.55,203.51Z"/><path class="cls-1" d="M190.08,282.29a53.94,53.94,0,0,1,15.58-.26c.79.09,2.31-.37,2.22,1s-1.51.76-2.31.7c-3-.22-5.94-.6-8.92-.89C194.46,282.65,192.27,282.48,190.08,282.29Z"/><path class="cls-1" d="M213,287.34c2.89,3.79,4.76,7.45,7.66,10.37a2.62,2.62,0,0,1,.12,3.62C217,297.38,214.69,292.86,213,287.34Z"/><path class="cls-1" d="M186.8,201.69c.49,1,1.27,1.41,1.35,2.44-1.49.73-1.53,2-.7,3.47-1.76.56-2.71-.16-2.68-1.62a42.55,42.55,0,0,1,.83-9.16C186.78,198.55,189,199.55,186.8,201.69Z"/><path class="cls-1" d="M273,292.63c4.12-2.42,5.79-6.85,9.66-9.35C282.83,287.64,277.84,292.54,273,292.63Z"/><path class="cls-1" d="M183.2,286.62c4.87-1.42,6.11,2.91,9.12,4.88C188.5,292.43,185.58,290.81,183.2,286.62Z"/><path class="cls-1" d="M160.05,124.73c4,.88,4.24,3.42.94,8.63C159,131.31,158.64,127.75,160.05,124.73Z"/><path class="cls-1" d="M242.5,207.75c1.61,4.21,3.05,8.42,2.51,13C243.62,216.52,242.06,212.32,242.5,207.75Z"/><path class="cls-1" d="M290.14,119.05c-.91-1.34-1.74-2.47-2.46-3.67-.4-.66-.88-1.6-.06-2.13a4.32,4.32,0,0,1,3.44-.24,1.32,1.32,0,0,1,.92,1.7A8.57,8.57,0,0,1,290.14,119.05Z"/><path class="cls-1" d="M239.23,299.89a4.85,4.85,0,0,1,3.09-2.62c.88-.34,1.93-.52,2.46-1.3,1-1.47,1.94-1.18,3.28,0C245.94,299,242.79,299.48,239.23,299.89Z"/><path class="cls-1" d="M262.22,287.62a6.12,6.12,0,0,1-3,6,1,1,0,0,1-1.3,0,1.51,1.51,0,0,1-.32-1.54A6.25,6.25,0,0,1,262.22,287.62Z"/><path class="cls-1" d="M232,203.22c2.4,3.14,2,6.22,1.88,9.2,0,.85-.86,1-2,.34C234,209.85,231.49,206.88,232,203.22Z"/><path class="cls-1" d="M212.59,246.74c2.34,2.71,2.48,6,.56,9.4C213.24,253,212.05,250.13,212.59,246.74Z"/><path class="cls-1" d="M245.86,242.39l-7.6-5.22A6.36,6.36,0,0,1,245.86,242.39Z"/><path class="cls-1" d="M252.52,295.82c-3.34-1.76-4.53-4.78-4.82-8.32A27.75,27.75,0,0,1,252.52,295.82Z"/><path class="cls-1" d="M217.55,288.77c2.84.11,4.71,2.87,4.85,6.81C219.6,294.16,219.22,291.19,217.55,288.77Z"/><path class="cls-1" d="M251.64,252.67c.27-1.55.45-3.12.82-4.64a4.23,4.23,0,0,1,3.34-3.45,33.54,33.54,0,0,0-3.08,7.3c-.17.47-.45.83-1,.75Z"/><path class="cls-1" d="M261.8,227.57l-6.24-5.25.37-.47c2.08,1.77,5.54,1.76,6.49,5Z"/><path class="cls-1" d="M219.83,220.35c2.37,2.12-.11,5.21,1.71,7.36C218.28,225.6,217.66,222.78,219.83,220.35Z"/><path class="cls-1" d="M197.4,232a58.77,58.77,0,0,1,2.14,9.18c-2.7-1.91-.16-6.08-3.79-7A4.19,4.19,0,0,1,197.4,232Z"/><path class="cls-1" d="M244.2,235.05c-3.59-1.37-4.19-3.42-1.71-6.18C243.26,231,243.16,233.08,244.2,235.05Z"/><path class="cls-1" d="M229.35,294.91c-1-1.6-2.19-3.25-.59-4.2,2.09-1.25,1.77,1.69,3,2.23C231.17,294,230.21,294.14,229.35,294.91Z"/><path class="cls-1" d="M243.41,254.86a3.81,3.81,0,0,1-2.43-2.7c-.22-1.44-1.51-.78-2.19-1.25-.43-.76.13-1.36.11-2,1.37-.38,4.44,3.36,4.79,5.59A1.43,1.43,0,0,0,243.41,254.86Z"/><path class="cls-1" d="M203.56,244c-.35,2.46-1,4.7-3.9,6C199.93,247.06,201.81,245.58,203.56,244Z"/><path class="cls-1" d="M211.44,234.15c2.36,2.44,1.27,5.41,2.37,8.07A11,11,0,0,1,211.44,234.15Z"/><path class="cls-1" d="M174.17,278.66c3.21,1.51,5.48,3.72,8.71,4.7C180.26,283.77,175.37,281.22,174.17,278.66Z"/><path class="cls-1" d="M280.46,117.68c.71-.88,1.36-2,2.49-1.15s1.4,2.32.72,3.85C282,120.09,281.37,118.79,280.46,117.68Z"/><path class="cls-1" d="M312.87,246c-1.51-1.86-1.4-4-1.44-6.39a2.35,2.35,0,0,1,1.65,2.91C312.86,243.62,312.39,244.75,312.87,246Z"/><path class="cls-1" d="M198.74,259.1c1.33-1.64.78-4.05,2.35-5.65C202.53,256.93,202.24,257.67,198.74,259.1Z"/><path class="cls-1" d="M153,128c-.51-1.6-.7-2.94,0-4.27a1.47,1.47,0,0,1,2-.73c.93.35.78,1.1.54,1.77A4.71,4.71,0,0,1,153,128Z"/><path class="cls-1" d="M162,280.17a7.76,7.76,0,0,1,5.6-5.49C166,277.05,164.86,279,162,280.17Z"/><path class="cls-1" d="M225.92,296.87c-2.42-2.31-1.47-4.71-1.58-7.14C226,291.33,226.19,292.18,225.92,296.87Z"/><path class="cls-1" d="M236.57,246.78c-2.57,2.24-2.7,5.63-4.66,8.14,1-2.85,1.83-5.73,2.9-8.54C235.09,245.65,235.87,246.09,236.57,246.78Z"/><path class="cls-1" d="M247.53,183.3c-1.3-1.39-1.3-2.9-1.45-4.36-.07-.68.32-1,1-1s1.32.16,1.2,1C248.07,180.3,248.57,181.78,247.53,183.3Z"/><path class="cls-1" d="M205.11,287.6c1.15,0,2.07,0,3,0a1.61,1.61,0,0,1,1.59,1.14.8.8,0,0,1-.28,1,1.76,1.76,0,0,1-2,.16A4.65,4.65,0,0,1,205.11,287.6Z"/><path class="cls-1" d="M211.26,225.73c1.44.77,3.43.82,4.08,3-2,.85-3-2.3-5-.75C210.46,227,210.44,226.27,211.26,225.73Z"/><path class="cls-1" d="M215,223.76l-.4-5.88a5.61,5.61,0,0,1,1.16,5.92Z"/><path class="cls-1" d="M238.94,255.43a7.5,7.5,0,0,1,1.69,3.68c-.92,1-1.57.34-2-.25C237.81,257.75,238.36,256.7,238.94,255.43Z"/><path class="cls-1" d="M207.76,239.69c-2.22-1-2-3.22.63-7.13C208,235,206.15,237.18,207.76,239.69Z"/><path class="cls-1" d="M247.87,254.66a26.13,26.13,0,0,0-3.69-5.79C246.42,249.24,247.92,251.56,247.87,254.66Z"/><path class="cls-1" d="M252.9,209.78a15.11,15.11,0,0,1,2.47,4.31,3.36,3.36,0,0,1-2.3-.45A7.14,7.14,0,0,0,252.9,209.78Z"/><path class="cls-1" d="M301.87,271.84a9.19,9.19,0,0,1-4.91,3.4C299.57,271.93,299.76,271.8,301.87,271.84Z"/><path class="cls-1" d="M248.53,233.41c-1.63-.89-2.7-2-2.23-4.26C248.06,230.22,247.84,232.07,248.53,233.41Z"/><path class="cls-1" d="M260.46,255.81c-2.29-.68-2.86-1.66-1.86-3.51C260.09,252.9,260.08,254.16,260.46,255.81Z"/><path class="cls-1" d="M153.48,277.66c2.46.63,3.58,2.19,5.35,3.41C156.84,281,156.33,280.64,153.48,277.66Z"/><path class="cls-1" d="M235.49,242.43a2.62,2.62,0,0,1,.51-2.26c.73.44,1.84.62,1.48,1.73C237.22,242.71,236.36,242.88,235.49,242.43Z"/><path class="cls-1" d="M238.93,228.18c.08-1.41-.12-2.48.51-3.52C240.8,226.14,240.76,226.49,238.93,228.18Z"/><path class="cls-1" d="M268.53,169.93c1.34.6,2.24.92,2.48,2.2C269.33,172.53,268.8,171.74,268.53,169.93Z"/><path class="cls-1" d="M203.31,222.76a2.7,2.7,0,0,1,1,2.44C203.24,225,203.08,224.18,203.31,222.76Z"/><path class="cls-1" d="M270.83,165.36c.67,1.09.44,1.93.1,3.22C269.82,167.31,269.32,166.48,270.83,165.36Z"/><polygon class="cls-1" points="251.69 252.63 251.67 252.72 251.65 252.67 251.69 252.63"/><path class="cls-1" d="M243.69,254.54c.21.05.44.14.27.39-.05.07-.36,0-.55-.07A1.43,1.43,0,0,1,243.69,254.54Z"/><path class="cls-2" d="M224.22,193c.06.54,0,1.11.47,1.62,1.07-.05,2.4-1.14,3.28.67-1.81,2.32-1.43,5.26-1.86,8a2.24,2.24,0,0,0,.24,1.6c2.21,2.53,1.1,5.36.83,8.1a14.09,14.09,0,0,0,.34,4.57,2.68,2.68,0,0,1-2.49-2.37c-.41-2.07-1-4.14-.36-6.3a7.08,7.08,0,0,0-.35-4c-.61-2-1.39-4.06-.48-6.21.4-.92-.29-1.29-.84-1.71s-1.17,0-1.6.47a5.76,5.76,0,0,0-1.34,3.7c-.07,1.17,0,2.34,0,3.69a2.27,2.27,0,0,1-1.9-2.51,9.68,9.68,0,0,1,.41-3c1-3.26,1.69-6.5,1-10a3,3,0,0,1,1.93-3.52c.93,1.2.42,2.57.5,3.82.1,1.62.4,3,2.28,3.35Z"/><path class="cls-2" d="M228.18,89.44c-3.19,0-6-3.13-5.63-5.62a2.15,2.15,0,0,1,1.41-2c2.26-.67,4,.45,5.47,1.94,1.28,1.28,1.07,2.89.42,4.4A2.12,2.12,0,0,1,228.18,89.44Z"/><path class="cls-2" d="M224.25,193c-.6-2.7.32-4.94,2.16-7.12,1.26,2,.76,4.93,3.63,5.67,1.63-1.33.19-4.24,2.82-5.17.95,3.29-.29,6-1.63,9.45-1.46-4.15-4.23-3.52-7-2.87Z"/><path class="cls-2" d="M256.88,188.85a13,13,0,0,0,2.8-4.18c1.23,1.29.48,2.43.08,3.47C259.23,189.54,258,188.89,256.88,188.85Z"/><path class="cls-2" d="M271.44,220.11c1.68.52,2.6,1.4,2.69,2.82,0,.6-.73.75-1.28.51C271.48,222.85,270.83,221.9,271.44,220.11Z"/><path class="cls-2" d="M222.82,238.87c-.47-1.25-.66-2.28.6-3a.76.76,0,0,1,1.12.52C225,237.73,224.45,238.54,222.82,238.87Z"/><path class="cls-2" d="M131.47,340.24v-7.35a23.11,23.11,0,0,1,7,.29c1.58.41,2.84,1.3,2.85,3.24a3.31,3.31,0,0,1-2.8,3.55C136.28,340.54,134,340.27,131.47,340.24Z"/></g></g></svg>