<?xml version="1.0" encoding="UTF-8" standalone="no"?>
<svg width="100px" height="46px" viewBox="0 0 100 46" version="1.1" xmlns="http://www.w3.org/2000/svg" xmlns:xlink="http://www.w3.org/1999/xlink" xmlns:sketch="http://www.bohemiancoding.com/sketch/ns">
    <!-- Generator: Sketch 3.2.2 (9983) - http://www.bohemiancoding.com/sketch -->
    <title>王灏</title>
    <desc>Created with Sketch.</desc>
    <defs></defs>
    <g id="Page-1" stroke="none" stroke-width="1" fill="none" fill-rule="evenodd" sketch:type="MSPage">
        <path d="M22.7274198,3.12980769 C27.8014999,2.26441875 30.5559591,1.61538678 30.9908803,1.18269231 C31.2808277,1.03846082 31.498285,0.966346154 31.6432588,0.966346154 C32.2231536,0.822114663 32.9480113,1.18268798 33.8178536,2.04807692 C35.1226171,2.91346587 35.7025032,3.77884183 35.5575295,4.64423077 C35.4125558,5.50961971 34.9776412,5.79807837 34.2527726,5.50961538 C33.6728777,5.07692091 32.0781908,5.00480625 29.4686639,5.29326923 C27.1490844,5.43750072 23.2348528,6.15864736 17.7258516,7.45673077 C12.2168504,8.32211971 9.24493382,8.89903702 8.81001268,9.1875 C8.37509153,9.33173149 8.08514845,9.1153875 7.94017473,8.53846154 C7.94017473,8.24999856 7.79520319,7.88942524 7.50525576,7.45673077 C7.36028204,6.87980481 7.2153105,6.37500216 7.07033679,5.94230769 C6.63541564,4.93268726 6.63541564,4.49999928 7.07033679,4.64423077 C7.50525793,4.64423077 8.95497335,4.57211611 11.4195265,4.42788462 C13.739106,4.13942163 17.508366,3.70673365 22.7274198,3.12980769 L22.7274198,3.12980769 Z M21.8575819,36.2307692 C31.2808734,35.0769173 36.13742,34.4278853 36.4273675,34.2836538 C36.8622886,34.1394224 37.6596321,34.4999957 38.8194218,35.3653846 C39.6892641,36.2307736 40.1241787,36.9519202 40.1241787,37.5288462 L40.1241787,37.7451923 C39.979205,37.8894238 39.9067192,38.0336531 39.9067192,38.1778846 C39.6167718,39.0432736 39.254343,39.3317322 38.8194218,39.0432692 C38.6744481,39.0432692 38.1670477,38.8990399 37.2972054,38.6105769 C36.7173105,38.4663454 36.2099101,38.3221161 35.774989,38.1778846 C34.0353044,37.7451901 30.6284732,37.7451901 25.5543931,38.1778846 C20.3353394,38.4663476 15.2613354,39.1874942 10.3322291,40.3413462 C5.25814903,41.3509666 2.50368974,41.9278839 2.0687686,42.0721154 C1.34390002,42.0721154 0.981471165,41.7836567 0.981471165,41.2067308 C0.691523733,40.4855733 0.546552192,39.8365413 0.546552192,39.2596154 C0.401578476,38.6826894 0.546550018,38.3221161 0.981471165,38.1778846 C1.41639231,38.1778846 7.3602255,37.6009673 18.8131491,36.4471154 L19.9004465,36.4471154 C19.0306042,35.149032 18.7406611,34.3557707 19.0306085,34.0673077 C19.0306085,33.9230762 19.1030943,33.5625029 19.248068,32.9855769 C19.248068,31.831725 19.3205538,30.8221197 19.4655275,29.9567308 C19.6105012,28.2259529 19.682987,26.062513 19.682987,23.4663462 C15.4787492,24.3317351 13.2316904,24.9086524 12.9417429,25.1971154 C12.5068218,25.1971154 11.9994214,24.4038541 11.4195265,22.8173077 C10.9846054,21.0865298 10.9846054,20.2932685 11.4195265,20.4375 C11.8544477,20.2932685 13.01422,20.2211538 14.8988783,20.2211538 C16.3486155,19.9326909 17.9433024,19.7163469 19.682987,19.5721154 C19.682987,15.6778651 19.4655297,12.7932786 19.0306085,10.9182692 C18.8856348,9.76441731 18.6681775,9.11538534 18.3782301,8.97115385 C18.3782301,8.68269087 18.5232016,8.53846154 18.8131491,8.53846154 C18.9581228,8.39423005 19.1755801,8.32211538 19.4655275,8.32211538 C19.7554749,8.17788389 19.9729323,8.10576923 20.117906,8.10576923 C20.8427746,8.10576923 21.640118,8.53845721 22.5099603,9.40384615 C23.5247763,10.4134666 24.0321767,11.2788425 24.0321767,12 C24.0321767,12.4326945 23.959691,14.5961344 23.8147172,18.4903846 C26.4242441,17.7692272 27.9464453,17.3365392 28.3813665,17.1923077 C28.8162876,16.7596132 29.5411453,17.1201865 30.5559613,18.2740385 C31.5707773,19.1394274 31.8607204,19.860574 31.4257993,20.4375 L31.2083398,20.4375 C29.1787078,21.1586575 26.6417058,21.8798041 23.5972578,22.6009615 L23.5972578,23.25 C23.452284,29.8846486 23.0173694,33.850955 22.2925008,35.1490385 C22.2925008,35.29327 22.2200151,35.4374993 22.0750413,35.5817308 C22.0750413,35.8701938 22.0025556,36.0865377 21.8575819,36.2307692 L21.8575819,36.2307692 Z M62.3050463,10.9182692 C61.7251515,9.9086488 61.0727795,8.97115817 60.347911,8.10576923 C59.9129898,7.67307476 59.4780752,7.24038678 59.043154,6.80769231 C58.8981803,6.51922933 58.8256946,6.375 58.8256946,6.375 C58.8256946,5.94230553 59.1156376,5.58173221 59.6955325,5.29326923 C60.2754274,5.00480625 61.0002851,4.93269159 61.8701274,5.07692308 C62.7399697,5.07692308 63.3923416,5.58172572 63.8272627,6.59134615 C64.5521313,7.31250361 64.9145602,8.1057649 64.9145602,8.97115385 C64.9145602,9.83654279 64.8420744,10.7019187 64.6971007,11.5673077 C64.4071533,12.2884651 64.1172102,12.6490385 63.8272627,12.6490385 C63.3923416,12.504807 62.8849412,11.9278897 62.3050463,10.9182692 L62.3050463,10.9182692 Z M53.1717479,19.1394231 C52.7368268,18.8509601 52.5193695,18.6346161 52.5193695,18.4903846 C52.5193695,18.2019216 52.664341,18.0576923 52.9542884,18.0576923 C53.0992621,17.9134608 53.6066625,17.6250022 54.4765048,17.1923077 C54.911426,17.1923077 55.2013691,17.120193 55.3463428,16.9759615 C56.6511062,16.3990356 57.5934212,16.5432649 58.1733161,17.4086538 C59.0431584,17.9855798 59.6955303,18.8509558 60.1304515,20.0048077 C60.8553201,21.0144281 61.0727774,21.9519188 60.7828299,22.8173077 C60.4928825,23.6826966 60.2029394,24.1153846 59.912992,24.1153846 C59.6230446,24.2596161 58.8257011,23.8269281 57.5209376,22.8173077 C57.0860165,22.3846132 56.5786161,21.8798106 55.9987212,21.3028846 C55.4188264,20.8701901 55.0563975,20.5817315 54.9114238,20.4375 C54.1865552,20.0048055 53.6066691,19.5721175 53.1717479,19.1394231 L53.1717479,19.1394231 Z M57.3034782,34.0673077 C57.7383993,34.0673077 58.3182855,33.778849 59.043154,33.2019231 C59.7680226,32.7692286 60.4928803,32.1201966 61.2177489,31.2548077 C61.9426175,30.5336502 62.3050463,30.3173062 62.3050463,30.6057692 C62.3050463,30.8942322 62.0151033,31.6153788 61.4352084,32.7692308 C60.8553135,33.9230827 60.5653704,34.716344 60.5653704,35.1490385 C60.5653704,35.5817329 60.7828278,36.3749942 61.2177489,37.5288462 C61.6526701,38.6826981 61.7251558,39.8365327 61.4352084,40.9903846 C61.2902347,42.288468 60.7828343,42.9375 59.912992,42.9375 C59.0431497,42.5048055 58.3907778,41.6394296 57.9558566,40.3413462 C57.5209355,38.7547998 57.0860208,37.5288505 56.6510997,36.6634615 C56.2161785,35.6538411 55.8537497,35.0769238 55.5638023,34.9326923 C55.5638023,34.4999978 55.7087738,34.2115392 55.9987212,34.0673077 L56.4336402,34.0673077 C56.8685614,33.9230762 57.1585044,33.9230762 57.3034782,34.0673077 L57.3034782,34.0673077 Z M78.6145078,0.75 L79.0494268,0.75 C79.4843479,0.75 80.2092056,1.03845865 81.2240217,1.61538462 C82.8187325,2.48077356 83.4711045,3.20192019 83.181157,3.77884615 C83.181157,4.50000361 82.9636997,5.07692091 82.5287786,5.50961538 C82.2388311,6.23077284 81.8764023,7.67306611 81.4414811,9.83653846 C80.7166126,12.0000108 80.1367264,13.4423041 79.7018053,14.1634615 C79.2668841,14.596156 78.976941,14.7403853 78.8319673,14.5961538 C78.5420199,14.4519224 78.3245626,14.091349 78.1795889,13.5144231 C77.8896414,12.6490341 77.8896414,11.6394288 78.1795889,10.4855769 C78.61451,9.62018798 78.9044531,8.32212404 79.0494268,6.59134615 C79.3393742,4.71633678 79.2668885,3.70673149 78.8319673,3.5625 C78.6869936,3.5625 77.8896501,3.63461466 76.439913,3.77884615 C75.2801232,3.92307764 74.2653224,4.2115363 73.3954801,4.64423077 C73.2505064,4.64423077 73.1055349,4.71634543 72.9605612,4.86057692 C72.6706137,5.00480841 72.3081849,5.07692308 71.8732637,5.07692308 C71.72829,5.22115457 71.6558043,5.1490399 71.6558043,4.86057692 C71.6558043,5.1490399 71.5833185,5.07692524 71.4383448,4.64423077 C71.2933711,4.35576779 71.0759137,3.92307981 70.7859663,3.34615385 C70.7859663,2.76922788 70.9309379,2.48076923 71.2208853,2.48076923 C71.6558064,2.48076923 72.8880645,2.26442524 74.9176966,1.83173077 C75.0626703,1.83173077 75.3526134,1.75961611 75.7875345,1.61538462 C77.2372717,1.32692163 78.1795867,1.03846298 78.6145078,0.75 L78.6145078,0.75 Z M72.7431017,13.5144231 C74.4827863,13.0817286 75.4975871,12.7211553 75.7875345,12.4326923 C76.0774819,11.9999978 76.4399108,12.1442272 76.8748319,12.8653846 C77.5997005,13.4423106 77.8171578,13.8749986 77.5272104,14.1634615 C77.5272104,14.596156 77.3097531,14.7403853 76.8748319,14.5961538 C76.4399108,14.5961538 76.0049962,14.6682685 75.570075,14.8125 C75.2801276,14.8125 74.845213,14.8846147 74.2653181,15.0288462 C74.5552655,14.8846147 74.410294,14.9567293 73.8303991,15.2451923 C75.1351626,15.2451923 75.932506,15.6778803 76.2224535,16.5432692 C76.6573746,17.2644267 76.8023462,17.841344 76.6573724,18.2740385 C80.1367416,17.552881 81.9488859,17.120193 82.0938596,16.9759615 C82.2388333,16.6874986 82.6012622,16.9038425 83.181157,17.625 C83.6160782,18.201926 83.7610497,18.6346139 83.616076,18.9230769 C83.3261286,19.0673084 82.9636997,19.1394231 82.5287786,19.1394231 C82.0938574,18.9951916 79.7743128,19.3557649 75.570075,20.2211538 C71.3658373,21.0865428 68.6838637,21.7355748 67.524074,22.1682692 C67.0891529,22.3125007 66.5817525,22.5288447 66.0018576,22.8173077 C65.5669365,22.9615392 65.2769934,23.0336538 65.1320197,23.0336538 C64.6970985,23.1778853 64.4796412,23.033656 64.4796412,22.6009615 C64.3346675,22.1682671 64.1172102,21.7355791 63.8272627,21.3028846 C63.8272627,20.7259587 63.9722343,20.4375 64.2621817,20.4375 C64.4071554,20.4375 65.7118993,20.221156 68.1764525,19.7884615 C70.4960319,19.3557671 72.4531477,18.9951938 74.0478586,18.7067308 C73.6129375,18.1298048 73.3229944,17.5528875 73.1780207,16.9759615 C73.0330469,16.5432671 72.9605612,16.1105791 72.9605612,15.6778846 C72.9605612,15.6778846 72.8880754,15.60577 72.7431017,15.4615385 C72.4531543,15.317307 72.3081827,15.1730776 72.3081827,15.0288462 C72.3081827,14.7403832 72.1632112,14.5240392 71.8732637,14.3798077 C71.5833163,14.5240392 71.2933732,14.5240392 71.0034258,14.3798077 C71.0034258,14.0913447 70.5685112,13.0817394 69.6986689,11.3509615 C69.5536952,11.0624986 69.4087236,10.7740399 69.2637499,10.4855769 C68.9738025,9.331725 68.6113736,8.39423438 68.1764525,7.67307692 C67.7415313,6.95191947 67.6690456,6.01442885 67.958993,4.86057692 C68.2489404,3.85095649 68.683855,3.56249784 69.2637499,3.99519231 C69.9886185,4.71634976 70.4235331,5.43749639 70.5685068,6.15865385 C71.003428,7.02404279 71.3658568,8.03364808 71.6558043,9.1875 C74.4103049,8.32211106 75.8600203,7.67307909 76.004994,7.24038462 C76.004994,6.95192163 76.4399086,7.0240363 77.3097509,7.45673077 C78.0346195,8.03365673 78.2520768,8.53845938 77.9621294,8.97115385 C77.9621294,9.40384832 77.5997005,9.62019231 76.8748319,9.62019231 C76.4399108,9.62019231 75.7875388,9.76442163 74.9176966,10.0528846 C74.0478543,10.1971161 73.4679681,10.4134601 73.1780207,10.7019231 C72.7430995,10.7019231 72.3806707,10.4855791 72.0907232,10.0528846 C72.0907232,10.3413476 72.163209,10.8461502 72.3081827,11.5673077 C72.5981301,12.4326966 72.7431017,13.0817286 72.7431017,13.5144231 L72.7431017,13.5144231 Z M79.2668863,28.875 C79.7018074,28.586537 80.1367221,28.802881 80.5716432,29.5240385 C81.0065643,30.1009644 81.1515359,30.5336524 81.0065622,30.8221154 C80.8615885,30.9663469 80.4991596,31.1105762 79.9192647,31.2548077 C79.774291,31.3990392 79.6293195,31.4711538 79.4843458,31.4711538 C78.6145035,31.4711538 77.0198165,31.6874978 74.7002371,32.1201923 C73.9753685,32.2644238 73.1055392,32.4807678 72.0907232,32.7692308 C71.5108284,32.9134623 71.003428,33.0576916 70.5685068,33.2019231 C70.4235331,33.2019231 70.2060758,33.1298084 69.9161284,32.9855769 C69.9161284,32.6971139 69.7711568,32.4086553 69.4812094,32.1201923 C69.3362357,31.8317293 69.3362357,31.6875 69.4812094,31.6875 C69.4812094,31.6875 69.6261809,31.6153853 69.9161284,31.4711538 C70.4960232,31.3269224 71.0759094,31.182693 71.6558043,31.0384615 C71.5108305,30.89423 71.2208875,30.5336567 70.7859663,29.9567308 C71.0759137,30.2451937 71.003428,30.1009644 70.5685068,29.5240385 C70.2785594,29.091344 69.6986732,28.2980827 68.8288309,27.1442308 C68.2489361,25.8461474 67.8140214,25.1250007 67.524074,24.9807692 C67.3791003,24.6923062 67.4515861,24.4759623 67.7415335,24.3317308 C67.8865072,24.0432678 68.3939076,24.0432678 69.2637499,24.3317308 C69.9886185,24.4759623 70.4960189,24.9807649 70.7859663,25.8461538 C70.7859663,25.9903853 70.8584521,26.1346147 71.0034258,26.2788462 C71.4383469,27.1442351 71.8007758,27.8653817 72.0907232,28.4423077 C72.6706181,29.3076966 72.9605612,30.1009579 72.9605612,30.8221154 L77.7446699,29.5240385 C77.3097487,28.802881 77.1647772,28.370193 77.3097509,28.2259615 C77.4547246,28.08173 77.6721819,27.4326981 77.9621294,26.2788462 C78.2520768,25.2692257 78.5420199,24.4038498 78.8319673,23.6826923 C77.8171513,23.9711553 76.7298647,24.4038433 75.570075,24.9807692 C74.9901801,25.2692322 74.6277513,25.4134615 74.4827776,25.4134615 C73.757909,25.846156 73.3954801,25.9182707 73.3954801,25.6298077 C73.2505064,25.3413447 73.0330491,24.9807714 72.7431017,24.5480769 C72.3081805,23.971151 72.2356948,23.6826923 72.5256422,23.6826923 C72.8155896,23.6826923 73.9028762,23.3942337 75.7875345,22.8173077 C77.9621402,22.2403817 79.2668841,21.7355791 79.7018053,21.3028846 C79.9917527,20.8701901 80.7890962,21.3749928 82.0938596,22.8173077 C83.2536493,24.4038541 83.5435924,25.26923 82.9636976,25.4134615 C82.3838027,25.557693 81.2965161,26.639413 79.7018053,28.6586538 L79.2668863,28.875 Z M76.004994,44.8846154 C75.8600203,45.0288469 75.7875345,45.1730762 75.7875345,45.3173077 C75.6425608,45.6057707 75.3526177,45.75 74.9176966,45.75 L74.7002371,45.75 C74.2653159,45.6057685 73.9753728,45.1009659 73.8303991,44.2355769 C73.8303991,43.658651 73.6129418,43.0817337 73.1780207,42.5048077 C72.7430995,42.0721132 72.3806707,41.7115399 72.0907232,41.4230769 C72.0907232,41.1346139 72.2356948,40.9903846 72.5256422,40.9903846 L73.3954801,40.9903846 C73.8304013,40.9903846 74.1203444,40.91827 74.2653181,40.7740385 C74.5552655,40.4855755 74.7002371,39.4038555 74.7002371,37.5288462 C74.7002371,35.2211423 74.6277513,33.9230784 74.4827776,33.6346154 L74.4827776,32.7692308 C74.6277513,32.4807678 75.1351517,32.5528825 76.004994,32.9855769 C76.5848888,33.2740399 77.0198035,33.7067279 77.3097509,34.2836538 C77.4547246,34.4278853 77.4547246,34.8605733 77.3097509,35.5817308 L77.3097509,36.6634615 C77.1647772,37.673082 77.0922914,38.9711459 77.0922914,40.5576923 C77.0922914,42.0000072 77.0198056,42.7932685 76.8748319,42.9375 C76.8748319,43.225963 76.7298604,43.658651 76.439913,44.2355769 C76.2949392,44.5240399 76.1499677,44.7403839 76.004994,44.8846154 L76.004994,44.8846154 Z M70.1335879,37.7451923 C70.1335879,38.1778868 70.0611021,38.6826894 69.9161284,39.2596154 C69.7711546,39.6923099 69.6986689,40.1971125 69.6986689,40.7740385 C69.8436426,41.3509644 69.6261853,41.7836524 69.0462904,42.0721154 C68.6113693,42.0721154 68.1764546,41.8557714 67.7415335,41.4230769 C67.3066124,40.846151 67.089155,39.9086603 67.089155,38.6105769 C67.089155,37.456725 67.3066124,36.591349 67.7415335,36.0144231 C67.8865072,36.0144231 68.0314788,35.9423084 68.1764525,35.7980769 C68.4663999,35.3653825 68.9013145,35.1490385 69.4812094,35.1490385 C70.0611043,34.8605755 70.3510473,34.9326901 70.3510473,35.3653846 C70.3510473,35.6538476 70.2785616,36.4471089 70.1335879,37.7451923 L70.1335879,37.7451923 Z M80.7891027,36.4471154 C80.0642341,35.437495 79.4843479,34.8605776 79.0494268,34.7163462 C79.0494268,34.5721147 78.9044553,34.4278853 78.6145078,34.2836538 C78.4695341,34.1394224 78.3245626,34.0673077 78.1795889,34.0673077 C78.1795889,34.0673077 78.3245604,33.9230784 78.6145078,33.6346154 C79.049429,33.3461524 79.6293151,33.2019231 80.3541837,33.2019231 C81.224026,33.2019231 82.0938553,33.7067257 82.9636976,34.7163462 C83.8335398,35.5817351 84.1959687,36.3749964 84.050995,37.0961538 C84.050995,37.6730798 83.8335377,38.1778825 83.3986165,38.6105769 C83.1086691,39.0432714 82.818726,39.1153861 82.5287786,38.8269231 C82.3838049,38.6826916 82.1663476,38.3942329 81.8764001,37.9615385 C81.441479,37.240381 81.0790501,36.7355784 80.7891027,36.4471154 L80.7891027,36.4471154 Z M92.7493744,7.88942308 C94.0541379,8.75481202 94.634024,9.40384399 94.4890503,9.83653846 C94.3440766,10.2692329 93.9816478,10.7740356 93.4017529,11.3509615 C92.821858,11.783656 91.9520288,12.5769173 90.7922391,13.7307692 C92.6768974,13.7307692 93.8366697,13.5865399 94.2715908,13.2980769 C94.4165646,13.2980769 94.5615361,13.2259623 94.7065098,13.0817308 C95.141431,12.7932678 95.431374,12.5048091 95.5763478,12.2163462 C96.0112689,11.9278832 96.8086124,12.3605712 97.9684021,13.5144231 C98.9832181,14.5240435 99.4906185,15.4615341 99.4906185,16.3269231 L99.4906185,17.4086538 C99.3456448,19.5721262 99.273159,21.6634514 99.273159,23.6826923 C99.1281853,28.009637 98.910728,31.1105675 98.6207806,32.9855769 C98.1858594,34.8605863 97.5334875,36.2307649 96.6636452,37.0961538 C98.4033298,39.1153947 99.2006733,40.557688 99.0556995,41.4230769 C99.0556995,42.0000029 98.8382422,42.7932642 98.4033211,43.8028846 C97.9683999,44.6682736 97.6059711,45.1009615 97.3160237,45.1009615 L96.8811047,45.1009615 C96.5911573,44.8124986 96.3012142,44.0913519 96.0112667,42.9375 C95.866293,41.6394166 95.4313784,40.1971233 94.7065098,38.6105769 C94.5615361,38.3221139 94.3440788,37.9615406 94.0541314,37.5288462 C93.4742365,36.3749942 93.0393219,35.7259623 92.7493744,35.5817308 C92.7493744,35.5817308 92.6768887,35.5096161 92.531915,35.3653846 C92.2419675,34.9326901 92.1694818,34.6442315 92.3144555,34.5 C92.6044029,34.5 92.9668318,34.5721147 93.4017529,34.7163462 C93.836674,34.8605776 94.489046,35.2932656 95.3588883,36.0144231 C95.0689408,35.1490341 95.1414266,34.5000022 95.5763478,34.0673077 C95.8662952,33.3461502 96.1562383,31.3990543 96.4461857,28.2259615 C96.7361331,24.7644058 96.7361331,21.7355899 96.4461857,19.1394231 C96.301212,16.5432562 96.0837547,15.0288483 95.7938073,14.5961538 C95.6488335,14.3076909 95.2139189,14.3076909 94.4890503,14.5961538 C94.0541292,15.0288483 93.4017572,15.317307 92.531915,15.4615385 C91.5170989,15.60577 90.9372128,15.8221139 90.7922391,16.1105769 C90.6472653,16.2548084 90.2848365,15.8221204 89.7049416,14.8125 C89.5599679,14.9567315 89.3425106,15.1009608 89.0525632,15.2451923 C88.4726683,15.5336553 88.0377537,15.6778846 87.7478063,15.6778846 C87.89278,17.9855885 87.9652657,19.6442257 87.9652657,20.6538462 C91.0097138,19.9326887 92.6768865,19.4278861 92.9668339,19.1394231 C93.2567814,18.8509601 93.6192102,19.0673041 94.0541314,19.7884615 C94.7789999,20.3653875 94.9239715,20.7980755 94.4890503,21.0865385 C94.3440766,21.0865385 93.9816478,21.1586531 93.4017529,21.3028846 C92.6768843,21.4471161 92.0969982,21.5913454 91.662077,21.7355769 C91.2271559,21.8798084 90.6472697,22.0240377 89.9224011,22.1682692 C89.3425063,22.3125007 89.0525632,22.3846154 89.0525632,22.3846154 C88.9075895,22.5288469 88.6176464,22.4567322 88.1827252,22.1682692 C88.6176464,22.4567322 88.5451606,22.3846175 87.9652657,21.9519231 L87.9652657,25.6298077 C88.1102395,25.6298077 88.3276968,25.557693 88.6176442,25.4134615 C91.0821974,24.6923041 92.3144555,24.1875014 92.3144555,23.8990385 C92.4594292,23.754807 92.821858,23.8990363 93.4017529,24.3317308 C93.2567792,24.3317308 93.329265,24.4038454 93.6192124,24.5480769 C94.1991073,24.9807714 94.271593,25.4134594 93.8366719,25.8461538 C93.5467244,25.9903853 92.749381,26.278844 91.4446175,26.7115385 C91.0096964,26.7115385 90.5747818,26.7836531 90.1398606,26.9278846 C89.8499132,27.0721161 89.4874843,27.1442308 89.0525632,27.1442308 C88.7626157,27.1442308 88.4726727,27.0721161 88.1827252,26.9278846 C88.1827252,28.9471255 88.0377537,30.3894188 87.7478063,31.2548077 C91.2271754,30.5336502 92.9668339,30.0288476 92.9668339,29.7403846 C93.1118076,29.5961531 93.4742365,29.7403825 94.0541314,30.1730769 C93.9091576,30.1730769 93.9816434,30.2451916 94.2715908,30.3894231 C94.9964594,30.966349 95.2139167,31.4711517 94.9239693,31.9038462 C94.9239693,32.3365406 94.6340262,32.48077 94.0541314,32.3365385 C93.4742365,32.192307 92.8943503,32.1201923 92.3144555,32.1201923 C91.8795343,32.1201923 91.2996482,32.2644216 90.5747796,32.5528846 C91.1546744,33.2740421 91.4446175,33.8509594 91.4446175,34.2836538 C91.4446175,34.7163483 91.1546744,35.221151 90.5747796,35.7980769 C89.9948847,36.3750029 88.8351124,37.4567228 87.0954278,39.0432692 C85.2107695,40.4855841 83.7610541,41.4230748 82.7462381,41.8557692 C81.8763958,42.1442322 81.4414811,42.2884615 81.4414811,42.2884615 L81.4414811,41.8557692 C81.5864549,41.7115377 81.8039122,41.4951938 82.0938596,41.2067308 C83.1086756,40.0528788 84.0509906,39.0432736 84.9208329,38.1778846 C86.8054912,36.0144123 87.9652636,34.355775 88.4001847,33.2019231 C86.3705527,33.778849 85.1382946,34.2836517 84.7033734,34.7163462 C84.2684523,35.1490406 83.9785092,35.1490406 83.8335355,34.7163462 C83.6885618,34.2836517 83.3986187,33.778849 82.9636976,33.2019231 C82.6737501,32.6249971 82.7462359,32.3365385 83.181157,32.3365385 C83.6160782,32.3365385 84.7033647,32.1201945 86.4430493,31.6875 C86.0081282,30.5336481 85.8631566,29.8846161 86.0081304,29.7403846 L86.0081304,29.3076923 C86.1531041,27.7211459 86.1531041,25.990394 86.0081304,24.1153846 C86.0081304,23.2499957 85.9356446,22.0240464 85.7906709,20.4375 C85.7906709,18.7067221 85.7181851,17.4807728 85.5732114,16.7596154 C85.4282377,15.173069 85.2107804,14.307693 84.9208329,14.1634615 C84.7758592,13.8749986 84.7033734,13.6586546 84.7033734,13.5144231 C84.8483472,13.2259601 85.3557476,13.2259601 86.2255898,13.5144231 C86.9504584,13.9471175 87.3853731,14.4519202 87.5303468,15.0288462 C87.6753205,14.8846147 87.8927778,14.6682707 88.1827252,14.3798077 C89.7774361,12.5047983 90.7197511,11.1346197 91.0096985,10.2692308 C91.4446197,9.40384183 91.5171055,8.75480986 91.227158,8.32211538 C89.0525523,8.89904135 87.7478084,9.40384399 87.3128873,9.83653846 C86.7329924,9.98076995 86.2980778,9.76442596 86.0081304,9.1875 C85.7181829,8.89903702 85.5007256,8.32211971 85.3557519,7.45673077 C85.2107782,7.31249928 85.1382924,7.16826995 85.1382924,7.02403846 C84.9933187,6.59134399 84.9933187,6.375 85.1382924,6.375 C85.1382924,6.23076851 85.283264,6.15865385 85.5732114,6.15865385 C85.8631588,6.15865385 86.443045,6.08653918 87.3128873,5.94230769 C88.472677,5.65384471 89.4874778,5.43750072 90.3573201,5.29326923 C92.966847,4.71634327 94.4165624,4.21154062 94.7065098,3.77884615 C94.7065098,3.63461466 94.8514814,3.5625 95.1414288,3.5625 C95.4313762,3.5625 95.9387766,3.85095865 96.6636452,4.42788462 C97.8234349,5.29327356 98.4033211,6.08653486 98.4033211,6.80769231 C98.2583474,7.38461827 97.9684043,7.60096226 97.5334831,7.45673077 C97.098562,7.16826779 96.4461901,7.16826779 95.5763478,7.45673077 C95.1414266,7.45673077 94.3440831,7.52884543 93.1842934,7.67307692 C93.909162,7.52884543 93.7641905,7.6009601 92.7493744,7.88942308 L92.7493744,7.88942308 Z" id="王灏" fill="#000000" sketch:type="MSShapeGroup"></path>
    </g>
</svg>