<?xml version="1.0" encoding="UTF-8" standalone="no"?><!DOCTYPE svg PUBLIC "-//W3C//DTD SVG 1.1//EN" "http://www.w3.org/Graphics/SVG/1.1/DTD/svg11.dtd"><svg width="100%" height="100%" viewBox="0 0 1300 255" version="1.1" xmlns="http://www.w3.org/2000/svg" xmlns:xlink="http://www.w3.org/1999/xlink" xml:space="preserve" xmlns:serif="http://www.serif.com/" style="fill-rule:evenodd;clip-rule:evenodd;stroke-linecap:round;stroke-miterlimit:1.5;"><rect x="179.56" y="106.882" width="80" height="40.005" style="fill:#3a3c42;"/><rect x="24.583" y="111.885" width="30" height="30" style="fill:none;stroke:#3a3c42;stroke-width:10px;"/><rect x="99.56" y="106.882" width="40" height="40.005" style="fill:#3a3c42;"/><rect x="219.56" y="26.811" width="40" height="40.005" style="fill:#3a3c42;"/><rect x="19.583" y="26.861" width="160" height="40.005" style="fill:#3a3c42;"/><rect x="19.56" y="186.911" width="240" height="40.005" style="fill:#3a3c42;"/><g><path d="M381.034,185.71l-0,-5.056c-14.806,-1.083 -16.251,-1.986 -16.251,-17.514l0,-72.224c0,-15.348 1.445,-16.431 16.251,-17.515l-0,-5.056l-47.849,0l0,5.056c14.806,1.084 16.251,2.167 16.251,17.515l-0,72.224c-0,15.348 -1.445,16.431 -16.251,17.514l0,5.056l47.849,0Z" style="fill:#3a3c42;fill-rule:nonzero;"/><path d="M479.441,185.71l-0,-4.695c-10.473,-1.083 -11.375,-1.805 -11.375,-14.083l-0,-34.849c-0,-17.514 -9.029,-27.445 -23.293,-27.445c-5.236,0 -9.931,2.167 -14.986,5.417c-4.514,3.07 -8.487,5.778 -12.098,8.486l0,-14.444c-7.945,3.611 -16.431,5.777 -25.098,7.402l0,4.153c9.75,1.806 10.834,2.348 10.834,13.904l-0,37.376c-0,11.917 -0.903,12.819 -13.181,14.083l-0,4.695l39.181,-0l0,-4.695c-10.653,-1.083 -11.736,-1.805 -11.736,-14.083l0,-42.432c5.417,-4.695 12.459,-9.209 19.681,-9.209c12.098,0 16.431,8.126 16.431,20.584l0,30.154c0,12.459 -1.264,13.903 -11.917,14.986l0,4.695l37.557,0Z" style="fill:#3a3c42;fill-rule:nonzero;"/><path d="M534.152,179.21l-1.625,-4.695c-2.528,1.264 -6.681,3.07 -11.195,3.07c-4.514,-0 -10.472,-2.709 -10.472,-17.334l-0,-46.404l19.32,-0c2.167,-1.264 2.708,-5.236 1.083,-7.042l-20.403,-0l-0,-24.737l-2.528,-0.361l-11.736,11.917l-0,13.181l-8.306,-0l-4.875,5.236l0.722,1.806l12.459,-0l-0,52.543c-0,14.264 6.319,21.487 17.695,21.487c1.625,-0 4.514,-0.723 7.583,-2.348l12.278,-6.319Z" style="fill:#3a3c42;fill-rule:nonzero;"/><path d="M602.767,166.571c-6.5,6.139 -13.362,9.028 -20.584,9.028c-12.639,-0 -26.723,-10.112 -26.904,-34.668c21.487,-0.722 44.057,-2.528 47.127,-3.07c3.25,-0.722 4.153,-2.166 4.153,-5.778c-0,-14.083 -12.098,-27.445 -27.084,-27.445l-0.181,0c-9.209,0 -18.959,4.875 -26.362,13.181c-7.403,8.125 -11.917,19.14 -11.917,31.598c0,20.404 13,38.46 35.209,38.46c5.598,-0 18.057,-3.25 29.432,-17.515l-2.889,-3.791Zm-27.626,-55.252c9.931,-0 16.07,8.667 15.889,18.056c0,2.528 -1.083,3.611 -4.333,3.611c-10.473,0.361 -20.403,0.542 -30.515,0.542c2.709,-14.626 10.653,-22.209 18.779,-22.209l0.18,-0Z" style="fill:#3a3c42;fill-rule:nonzero;"/><path d="M653.325,185.71l0,-4.695c-11.555,-1.083 -13,-2.166 -13,-14.083l0,-109.781c-6.139,2.166 -17.334,5.236 -26.723,6.319l0,4.334c11.375,0.903 12.459,1.444 12.459,13.722l-0,85.406c-0,11.917 -1.625,13 -13.001,14.083l0,4.695l40.265,0Z" style="fill:#3a3c42;fill-rule:nonzero;"/><path d="M699.912,185.71l-0,-4.695c-11.556,-1.083 -13.001,-2.166 -13.001,-14.083l0,-109.781c-6.139,2.166 -17.334,5.236 -26.723,6.319l0,4.334c11.376,0.903 12.459,1.444 12.459,13.722l-0,85.406c-0,11.917 -1.625,13 -13,14.083l-0,4.695l40.265,0Z" style="fill:#3a3c42;fill-rule:nonzero;"/><path d="M726.997,88.929c5.237,0 9.209,-4.333 9.209,-9.208c-0,-5.417 -3.972,-9.389 -9.028,-9.389c-4.875,-0 -9.209,3.972 -9.209,9.389c0,4.875 4.334,9.208 9.028,9.208Zm21.126,96.781l-0,-4.695c-11.556,-1.083 -12.82,-2.166 -12.82,-14.444l0,-62.294c-7.945,3.25 -16.431,5.597 -25.64,7.042l0,4.333c10.834,1.625 11.376,2.528 11.376,13.542l-0,37.377c-0,12.278 -1.264,13.361 -12.639,14.444l-0,4.695l39.723,0Z" style="fill:#3a3c42;fill-rule:nonzero;"/><path d="M824.863,94.707c-1.445,-11.375 -2.348,-18.417 -3.07,-24.917c-6.861,-2.167 -14.445,-4.153 -22.75,-4.153c-23.293,0 -37.196,14.806 -37.196,32.14c0,20.403 18.237,29.431 29.793,35.57c13.542,7.223 23.472,13.542 23.472,26.904c0,13.181 -8.125,21.667 -21.667,21.667c-18.598,0 -26.723,-18.236 -29.612,-29.251l-5.236,1.264c1.083,8.667 3.431,24.195 4.875,27.987c1.625,0.903 4.334,2.167 8.848,3.792c4.514,1.264 10.292,2.708 17.695,2.708c24.014,0 40.084,-15.167 40.084,-34.126c0,-20.222 -17.153,-28.709 -31.237,-35.931c-14.264,-7.403 -22.931,-13.542 -22.931,-26.723c-0,-9.75 6.139,-19.862 20.042,-19.862c15.709,0 20.403,12.459 23.653,24.015l5.237,-1.084Z" style="fill:#3a3c42;fill-rule:nonzero;"/><path d="M920.02,106.805l-32.682,-0l0,4.514c10.292,1.444 11.556,3.431 9.389,10.292c-3.791,11.375 -11.555,32.681 -16.611,44.96l-16.431,-45.321c-2.347,-6.681 -1.445,-8.487 6.861,-9.931l0,-4.514l-36.654,-0l0,4.514c9.931,1.444 11.737,3.792 15.529,13.723c5.416,12.819 13.542,34.667 20.764,55.251c1.083,3.07 1.083,5.417 0.181,8.125c-0.723,2.348 -2.167,6.139 -5.598,12.459c-4.153,8.125 -7.764,12.459 -13.361,16.07c-3.07,1.986 -4.695,3.611 -4.695,6.5c0,4.334 5.236,8.667 10.292,8.667c2.528,0 4.695,-0.903 5.778,-4.333c2.528,-9.751 6.5,-20.043 18.598,-48.932c12.458,-29.793 18.056,-44.779 22.57,-54.349c4.875,-10.292 6.5,-11.737 16.07,-13.181l-0,-4.514Z" style="fill:#3a3c42;fill-rule:nonzero;"/><path d="M974.37,127.028c-0.542,-4.514 -2.528,-15.167 -3.972,-19.32c-3.792,-1.445 -8.667,-3.25 -16.07,-3.07c-16.612,0 -27.445,10.653 -27.445,23.293c-0,13.903 11.736,19.861 22.57,24.917c9.028,4.153 14.264,8.486 14.264,16.431c0,7.584 -6.139,12.639 -12.82,12.639c-10.833,0 -18.959,-10.472 -22.209,-22.389l-4.694,0.902c-0,6.501 1.625,18.779 2.889,21.307c3.25,2.708 11.556,6.139 20.764,6.139c14.445,-0 29.793,-8.487 29.793,-24.918c-0,-12.458 -9.209,-18.959 -22.751,-24.556c-8.125,-3.431 -15.348,-7.764 -15.348,-15.709c0,-7.042 4.875,-12.458 11.737,-12.458c8.847,-0 15.167,7.222 18.598,17.875l4.694,-1.083Z" style="fill:#3a3c42;fill-rule:nonzero;"/><path d="M1113.22,156.279c-2.708,8.305 -6.139,14.083 -9.208,17.695c-4.153,4.694 -10.292,5.597 -20.223,5.597c-7.584,-0 -13.723,-0.361 -17.334,-2.347c-3.25,-1.806 -4.153,-5.417 -4.153,-15.167l0,-71.322c0,-15.348 1.625,-16.25 15.89,-17.334l-0,-5.056l-47.127,0l0,5.056c14.626,1.084 15.89,1.986 15.89,17.334l-0,72.224c-0,15.348 -1.445,16.612 -16.612,17.695l-0,5.056l81.794,0c1.625,-5.597 5.417,-22.751 6.5,-28.348l-5.417,-1.083Z" style="fill:#3a3c42;fill-rule:nonzero;"/><path d="M1201.88,178.668l-1.805,-4.694c-1.806,1.083 -4.334,1.986 -6.501,1.986c-3.069,-0 -6.319,-2.709 -6.319,-10.834l-0,-33.584c-0,-9.389 -1.806,-16.792 -8.125,-22.029c-3.973,-3.25 -9.39,-4.875 -14.806,-4.875c-10.292,1.986 -22.029,9.028 -27.084,12.639c-3.431,2.528 -5.778,4.514 -5.778,7.223c-0,4.153 4.694,7.764 7.944,7.764c2.528,-0 4.514,-1.264 5.237,-4.333c1.444,-5.417 3.069,-9.39 5.416,-11.737c1.806,-2.167 4.514,-3.611 8.126,-3.611c9.028,-0 15.167,7.403 15.167,20.403l-0,3.25c-3.973,3.25 -17.154,8.126 -27.987,11.737c-9.931,3.43 -14.626,9.028 -14.626,17.875c0,11.376 8.848,22.029 21.668,22.029c5.416,-0 14.083,-6.681 21.306,-11.556c0.903,3.069 1.986,5.597 4.333,8.125c1.986,1.806 5.778,3.431 8.487,3.431l15.347,-9.209Zm-28.528,-8.125c-3.431,3.25 -9.751,6.32 -14.445,6.5c-5.598,0 -12.82,-4.514 -12.82,-13.903c-0,-6.5 3.972,-9.931 11.014,-13.181c3.792,-1.806 12.459,-5.597 16.251,-7.584l-0,28.168Z" style="fill:#3a3c42;fill-rule:nonzero;"/><path d="M1228.97,112.763l-0,-55.612c-6.681,2.528 -17.695,5.236 -26.181,6.319l-0,4.153c11.555,1.084 11.917,2.167 11.917,13.362l-0,100.392c9.93,4.694 19.139,6.5 26.542,6.5c24.195,-0 45.321,-18.779 45.321,-45.321c-0,-21.306 -16.251,-37.918 -35.571,-37.918c-1.986,0 -4.514,0.542 -7.403,1.806l-14.625,6.319Zm-0,5.417c3.25,-1.986 9.028,-3.43 14.084,-3.43c14.986,-0 27.625,11.917 27.625,32.501c0,20.945 -9.569,33.764 -24.556,33.764c-9.57,-0.18 -14.986,-6.5 -16.07,-10.111c-0.722,-1.625 -1.083,-3.431 -1.083,-6.139l-0,-46.585Z" style="fill:#3a3c42;fill-rule:nonzero;"/></g></svg>