<?xml version="1.0" encoding="UTF-8"?>
<svg width="254px" height="155px" viewBox="0 0 254 155" version="1.1" xmlns="http://www.w3.org/2000/svg" xmlns:xlink="http://www.w3.org/1999/xlink">
    <!-- Generator: Sketch 42 (36781) - http://www.bohemiancoding.com/sketch -->
    <title>Combined Shape</title>
    <desc>Created with Sketch.</desc>
    <defs></defs>
    <g id="Page-1" stroke="none" stroke-width="1" fill="none" fill-rule="evenodd">
        <g id="Group" transform="translate(-1.000000, 0.000000)" fill="#F7F7F0">
            <path d="M93,19.8370536 L93,0 L21,0 L21,10.9072343 C20.5406693,10.9104589 20.0758126,10.9137879 19.6053218,10.9172172 C11.4860963,10.976396 6.64014083,11.0007439 1.00131914,11.0000001 L0.998680859,30.9999999 C6.69931621,31.0007519 11.5858817,30.9761999 19.7510925,30.9166859 C20.1720543,30.9136177 20.5883301,30.9106327 21,30.9077338 L21,155 L93,155 L93,43.3076654 C99.1947232,47.9288967 105.89015,54.4448871 114.144472,63.8458704 L127,78.4872435 L127,155 L176,155 L176,128.7159 C179.076647,130.712055 182.242872,132.423792 185.755621,134.05334 C191.481593,136.709593 197.724835,138.752274 205,140.275284 L205,155 L228,155 L228,143.225586 C235.88912,143.759238 244.793887,144 255,144 L255,124 C244.528697,124 235.647422,123.739018 228,123.176705 L228,0 L205,0 L205,119.733108 C200.958781,118.678437 197.405829,117.410606 194.172022,115.910458 C187.829073,112.967993 182.755478,109.473731 176,102.931368 L176,0 L127,0 L127,48.199608 C117.015421,37.0610262 108.719068,29.4920368 100.313432,24.0365803 C97.901251,22.4710175 95.4748498,21.0762369 93,19.8370536 Z" id="Combined-Shape"></path>
        </g>
    </g>
</svg>