<?xml version="1.0" encoding="UTF-8" standalone="no"?>
<!DOCTYPE svg PUBLIC "-//W3C//DTD SVG 1.1//EN" "http://www.w3.org/Graphics/SVG/1.1/DTD/svg11.dtd">
<svg width="100%" height="100%" viewBox="0 0 2896 305" version="1.1" xmlns="http://www.w3.org/2000/svg" xmlns:xlink="http://www.w3.org/1999/xlink" xml:space="preserve" xmlns:serif="http://www.serif.com/" style="fill-rule:evenodd;clip-rule:evenodd;stroke-linejoin:round;stroke-miterlimit:2;">
    <g transform="matrix(4.16667,0,0,4.16667,0,3.725)">
        <path d="M120.375,52.286L120.375,30.055L77.814,30.055L77.814,23.767C77.814,20.988 80.887,18.721 84.615,18.721L120.375,18.721L120.375,6.803L75.036,6.803C65.384,6.803 57.486,12.651 57.486,19.817L57.486,41.975L100.045,41.975L100.045,48.338C100.045,51.116 96.975,53.383 93.171,53.383L57.486,53.383L57.486,65.303L102.751,65.303C112.476,65.303 120.375,59.452 120.375,52.286" style="fill:rgb(78,41,132);fill-rule:nonzero;"/>
    </g>
    <g transform="matrix(4.16667,0,0,4.16667,0,3.725)">
        <path d="M52.651,53.455L20.184,53.455L20.184,6.803L0,6.803L0,65.303L52.651,65.303L52.651,53.455" style="fill:rgb(78,41,132);fill-rule:nonzero;"/>
    </g>
    <g transform="matrix(4.16667,0,0,4.16667,0,3.725)">
        <path d="M187.919,52.286L187.919,6.803L167.664,6.803L167.664,48.338C167.664,51.19 164.593,53.455 160.79,53.455L145.287,53.455L145.287,6.947L125.179,6.947L125.179,65.303L170.37,65.303C180.022,65.303 187.919,59.452 187.919,52.286" style="fill:rgb(78,41,132);fill-rule:nonzero;"/>
    </g>
    <g transform="matrix(4.16667,0,0,4.16667,0,3.09167)">
        <rect x="213.379" y="0.06" width="1.5" height="72.138" style="fill:rgb(78,41,132);"/>
    </g>
    <g transform="matrix(4.16667,0,0,4.16667,0,-24.1)">
        <path d="M237.419,26.385L242.958,26.385L242.958,47.524L253.956,47.524L253.956,52.399L237.419,52.399L237.419,26.385" style="fill:rgb(78,41,132);fill-rule:nonzero;"/>
    </g>
    <g transform="matrix(4.16667,0,0,4.16667,0,5.8)">
        <path d="M271.272,35.784C271.272,32.859 269.517,30.324 266.436,30.324C263.355,30.324 261.638,32.859 261.638,35.784C261.638,38.748 263.355,41.284 266.436,41.284C269.517,41.284 271.272,38.748 271.272,35.784ZM256.49,35.784C256.49,30.441 260.234,25.917 266.436,25.917C272.676,25.917 276.42,30.441 276.42,35.784C276.42,41.167 272.676,45.691 266.436,45.691C260.234,45.691 256.49,41.167 256.49,35.784" style="fill:rgb(78,41,132);fill-rule:nonzero;"/>
    </g>
    <g transform="matrix(4.16667,0,0,4.16667,0,7.75)">
        <path d="M292.799,42.376C291.512,43.818 289.25,45.223 286.168,45.223C282.035,45.223 280.084,42.961 280.084,39.295L280.084,25.917L285.038,25.917L285.038,37.345C285.038,39.958 286.403,40.816 288.509,40.816C290.419,40.816 291.941,39.763 292.799,38.671L292.799,25.917L297.752,25.917L297.752,44.755L292.799,44.755L292.799,42.376" style="fill:rgb(78,41,132);fill-rule:nonzero;"/>
    </g>
    <g transform="matrix(4.16667,0,0,4.16667,0,-28.975)">
        <path d="M302.666,34.731L307.619,34.731L307.619,53.569L302.666,53.569L302.666,34.731ZM302.159,29.349C302.159,27.71 303.524,26.385 305.123,26.385C306.761,26.385 308.086,27.71 308.086,29.349C308.086,30.986 306.761,32.313 305.123,32.313C303.524,32.313 302.159,30.986 302.159,29.349" style="fill:rgb(78,41,132);fill-rule:nonzero;"/>
    </g>
    <g transform="matrix(4.16667,0,0,4.16667,0,5.8)">
        <path d="M313.039,39.294C314.404,40.581 317.212,41.869 319.552,41.869C321.697,41.869 322.711,41.128 322.711,39.957C322.711,38.632 321.073,38.163 318.928,37.735C315.691,37.111 311.518,36.33 311.518,31.845C311.518,28.686 314.287,25.917 319.24,25.917C322.438,25.917 324.973,27.009 326.845,28.491L324.856,31.884C323.725,30.675 321.581,29.7 319.279,29.7C317.485,29.7 316.315,30.363 316.315,31.455C316.315,32.625 317.797,33.054 319.903,33.483C323.14,34.107 327.469,34.965 327.469,39.646C327.469,43.077 324.544,45.691 319.318,45.691C316.042,45.691 312.882,44.599 310.894,42.766L313.039,39.294" style="fill:rgb(78,41,132);fill-rule:nonzero;"/>
    </g>
    <g transform="matrix(4.16667,0,0,4.16667,0,-28.975)">
        <path d="M331.134,34.731L336.087,34.731L336.087,53.569L331.134,53.569L331.134,34.731ZM330.627,29.349C330.627,27.71 331.993,26.385 333.591,26.385C335.23,26.385 336.555,27.71 336.555,29.349C336.555,30.986 335.23,32.313 333.591,32.313C331.993,32.313 330.627,30.986 330.627,29.349" style="fill:rgb(78,41,132);fill-rule:nonzero;"/>
    </g>
    <g transform="matrix(4.16667,0,0,4.16667,0,5.8)">
        <path d="M352.312,38.359C351.493,37.267 349.933,36.721 348.333,36.721C346.383,36.721 344.785,37.735 344.785,39.568C344.785,41.323 346.383,42.337 348.333,42.337C349.933,42.337 351.493,41.79 352.312,40.699L352.312,38.359ZM352.312,43.273C351.025,44.794 348.802,45.691 346.345,45.691C343.341,45.691 339.792,43.663 339.792,39.451C339.792,35.043 343.341,33.444 346.345,33.444C348.841,33.444 351.064,34.224 352.312,35.745L352.312,33.132C352.312,31.221 350.674,29.973 348.178,29.973C346.15,29.973 344.278,30.714 342.678,32.196L340.806,28.881C343.108,26.852 346.072,25.917 349.036,25.917C353.326,25.917 357.265,27.633 357.265,33.054L357.265,45.223L352.312,45.223L352.312,43.273" style="fill:rgb(78,41,132);fill-rule:nonzero;"/>
    </g>
    <g transform="matrix(4.16667,0,0,4.16667,0,3.85)">
        <path d="M374.893,34.302C374.893,31.689 373.527,30.792 371.421,30.792C369.471,30.792 367.95,31.884 367.131,33.015L367.131,45.691L362.178,45.691L362.178,26.853L367.131,26.853L367.131,29.31C368.34,27.867 370.642,26.385 373.723,26.385C377.856,26.385 379.846,28.725 379.846,32.391L379.846,45.691L374.893,45.691L374.893,34.302" style="fill:rgb(78,41,132);fill-rule:nonzero;"/>
    </g>
    <g transform="matrix(4.16667,0,0,4.16667,0,5.8)">
        <path d="M396.069,38.359C395.25,37.267 393.69,36.721 392.091,36.721C390.141,36.721 388.542,37.735 388.542,39.568C388.542,41.323 390.141,42.337 392.091,42.337C393.69,42.337 395.25,41.79 396.069,40.699L396.069,38.359ZM396.069,43.273C394.782,44.794 392.56,45.691 390.103,45.691C387.099,45.691 383.55,43.663 383.55,39.451C383.55,35.043 387.099,33.444 390.103,33.444C392.599,33.444 394.821,34.224 396.069,35.745L396.069,33.132C396.069,31.221 394.432,29.973 391.936,29.973C389.907,29.973 388.035,30.714 386.436,32.196L384.563,28.881C386.865,26.852 389.829,25.917 392.793,25.917C397.083,25.917 401.022,27.633 401.022,33.054L401.022,45.223L396.069,45.223L396.069,43.273" style="fill:rgb(78,41,132);fill-rule:nonzero;"/>
    </g>
    <g transform="matrix(4.16667,0,0,4.16667,0,-23.7792)">
        <path d="M417.285,44.444C419.118,46.355 421.965,47.954 425.554,47.954C428.596,47.954 430.077,46.51 430.077,45.029C430.077,43.078 427.815,42.415 424.813,41.713C420.562,40.739 415.101,39.568 415.101,33.757C415.101,29.428 418.845,25.917 424.969,25.917C429.103,25.917 432.534,27.165 435.108,29.545L432.027,33.601C429.922,31.651 427.113,30.754 424.578,30.754C422.082,30.754 420.756,31.846 420.756,33.405C420.756,35.16 422.94,35.707 425.943,36.408C430.233,37.384 435.693,38.671 435.693,44.444C435.693,49.202 432.301,52.79 425.28,52.79C420.288,52.79 416.7,51.113 414.282,48.656L417.285,44.444" style="fill:rgb(78,41,132);fill-rule:nonzero;"/>
    </g>
    <g transform="matrix(4.16667,0,0,4.16667,0,-13.7042)">
        <path d="M440.294,45.223L440.294,35.395L437.175,35.395L437.175,31.066L440.294,31.066L440.294,25.917L445.286,25.917L445.286,31.066L449.108,31.066L449.108,35.395L445.286,35.395L445.286,43.898C445.286,45.068 445.911,45.965 447.003,45.965C447.744,45.965 448.445,45.692 448.719,45.419L449.771,49.163C449.03,49.826 447.705,50.372 445.638,50.372C442.167,50.372 440.294,48.578 440.294,45.223" style="fill:rgb(78,41,132);fill-rule:nonzero;"/>
    </g>
    <g transform="matrix(4.16667,0,0,4.16667,0,5.8)">
        <path d="M463.812,38.359C462.992,37.267 461.433,36.721 459.833,36.721C457.883,36.721 456.284,37.735 456.284,39.568C456.284,41.323 457.883,42.337 459.833,42.337C461.433,42.337 462.992,41.79 463.812,40.699L463.812,38.359ZM463.812,43.273C462.524,44.794 460.302,45.691 457.845,45.691C454.841,45.691 451.292,43.663 451.292,39.451C451.292,35.043 454.841,33.444 457.845,33.444C460.341,33.444 462.563,34.224 463.812,35.745L463.812,33.132C463.812,31.221 462.174,29.973 459.678,29.973C457.649,29.973 455.777,30.714 454.178,32.196L452.306,28.881C454.607,26.852 457.571,25.917 460.535,25.917C464.825,25.917 468.765,27.633 468.765,33.054L468.765,45.223L463.812,45.223L463.812,43.273" style="fill:rgb(78,41,132);fill-rule:nonzero;"/>
    </g>
    <g transform="matrix(4.16667,0,0,4.16667,0,-13.7042)">
        <path d="M474.653,45.223L474.653,35.395L471.532,35.395L471.532,31.066L474.653,31.066L474.653,25.917L479.646,25.917L479.646,31.066L483.467,31.066L483.467,35.395L479.646,35.395L479.646,43.898C479.646,45.068 480.269,45.965 481.361,45.965C482.103,45.965 482.804,45.692 483.077,45.419L484.13,49.163C483.39,49.826 482.063,50.372 479.996,50.372C476.524,50.372 474.653,48.578 474.653,45.223" style="fill:rgb(78,41,132);fill-rule:nonzero;"/>
    </g>
    <g transform="matrix(4.16667,0,0,4.16667,0,5.8)">
        <path d="M490.761,34.029L500.043,34.029C499.926,32.235 498.678,29.856 495.401,29.856C492.32,29.856 490.994,32.157 490.761,34.029ZM495.401,25.917C501.018,25.917 504.84,30.129 504.84,36.291L504.84,37.384L490.839,37.384C491.15,39.763 493.062,41.752 496.26,41.752C498.015,41.752 500.082,41.05 501.291,39.88L503.475,43.077C501.603,44.794 498.639,45.691 495.714,45.691C489.98,45.691 485.651,41.829 485.651,35.784C485.651,30.324 489.669,25.917 495.401,25.917" style="fill:rgb(78,41,132);fill-rule:nonzero;"/>
    </g>
    <g transform="matrix(4.16667,0,0,4.16667,0,-22.15)">
        <path d="M518.527,25.917L524.144,25.917L524.144,41.361C524.144,44.989 526.133,47.485 530.188,47.485C534.167,47.485 536.156,44.989 536.156,41.361L536.156,25.917L541.772,25.917L541.772,41.517C541.772,47.992 538.067,52.399 530.188,52.399C522.232,52.399 518.527,47.952 518.527,41.556L518.527,25.917" style="fill:rgb(78,41,132);fill-rule:nonzero;"/>
    </g>
    <g transform="matrix(4.16667,0,0,4.16667,0,3.85)">
        <path d="M559.518,34.302C559.518,31.689 558.152,30.792 556.046,30.792C554.096,30.792 552.575,31.884 551.756,33.015L551.756,45.691L546.803,45.691L546.803,26.853L551.756,26.853L551.756,29.31C552.965,27.867 555.267,26.385 558.348,26.385C562.481,26.385 564.471,28.725 564.471,32.391L564.471,45.691L559.518,45.691L559.518,34.302" style="fill:rgb(78,41,132);fill-rule:nonzero;"/>
    </g>
    <g transform="matrix(4.16667,0,0,4.16667,0,-28.975)">
        <path d="M569.383,34.731L574.336,34.731L574.336,53.569L569.383,53.569L569.383,34.731ZM568.876,29.349C568.876,27.71 570.241,26.385 571.84,26.385C573.478,26.385 574.804,27.71 574.804,29.349C574.804,30.986 573.478,32.313 571.84,32.313C570.241,32.313 568.876,30.986 568.876,29.349" style="fill:rgb(78,41,132);fill-rule:nonzero;"/>
    </g>
    <g transform="matrix(4.16667,0,0,4.16667,0,5.8)">
        <path d="M576.559,26.385L581.863,26.385L586.777,39.49L591.691,26.385L597.035,26.385L589.469,45.223L584.125,45.223L576.559,26.385" style="fill:rgb(78,41,132);fill-rule:nonzero;"/>
    </g>
    <g transform="matrix(4.16667,0,0,4.16667,0,5.8)">
        <path d="M603.156,34.029L612.438,34.029C612.321,32.235 611.073,29.856 607.797,29.856C604.716,29.856 603.39,32.157 603.156,34.029ZM607.797,25.917C613.413,25.917 617.235,30.129 617.235,36.291L617.235,37.384L603.234,37.384C603.546,39.763 605.457,41.752 608.655,41.752C610.41,41.752 612.478,41.05 613.687,39.88L615.87,43.077C613.998,44.794 611.034,45.691 608.109,45.691C602.376,45.691 598.047,41.829 598.047,35.784C598.047,30.324 602.064,25.917 607.797,25.917" style="fill:rgb(78,41,132);fill-rule:nonzero;"/>
    </g>
    <g transform="matrix(4.16667,0,0,4.16667,0,4.0125)">
        <path d="M620.823,26.814L625.776,26.814L625.776,29.388C627.103,27.711 629.442,26.385 631.782,26.385L631.782,31.221C631.432,31.143 630.964,31.065 630.418,31.065C628.779,31.065 626.596,32.001 625.776,33.21L625.776,45.652L620.823,45.652L620.823,26.814" style="fill:rgb(78,41,132);fill-rule:nonzero;"/>
    </g>
    <g transform="matrix(4.16667,0,0,4.16667,0,5.8)">
        <path d="M635.369,39.294C636.734,40.581 639.543,41.869 641.883,41.869C644.027,41.869 645.042,41.128 645.042,39.957C645.042,38.632 643.403,38.163 641.259,37.735C638.021,37.111 633.849,36.33 633.849,31.845C633.849,28.686 636.617,25.917 641.57,25.917C644.769,25.917 647.304,27.009 649.176,28.491L647.187,31.884C646.056,30.675 643.911,29.7 641.609,29.7C639.815,29.7 638.646,30.363 638.646,31.455C638.646,32.625 640.128,33.054 642.233,33.483C645.471,34.107 649.8,34.965 649.8,39.646C649.8,43.077 646.875,45.691 641.648,45.691C638.372,45.691 635.214,44.599 633.225,42.766L635.369,39.294" style="fill:rgb(78,41,132);fill-rule:nonzero;"/>
    </g>
    <g transform="matrix(4.16667,0,0,4.16667,0,-28.975)">
        <path d="M653.465,34.731L658.418,34.731L658.418,53.569L653.465,53.569L653.465,34.731ZM652.958,29.349C652.958,27.71 654.323,26.385 655.922,26.385C657.56,26.385 658.886,27.71 658.886,29.349C658.886,30.986 657.56,32.313 655.922,32.313C654.323,32.313 652.958,30.986 652.958,29.349" style="fill:rgb(78,41,132);fill-rule:nonzero;"/>
    </g>
    <g transform="matrix(4.16667,0,0,4.16667,0,-13.7042)">
        <path d="M664.308,45.223L664.308,35.395L661.187,35.395L661.187,31.066L664.308,31.066L664.308,25.917L669.3,25.917L669.3,31.066L673.121,31.066L673.121,35.395L669.3,35.395L669.3,43.898C669.3,45.068 669.923,45.965 671.016,45.965C671.757,45.965 672.458,45.692 672.731,45.419L673.784,49.163C673.044,49.826 671.718,50.372 669.65,50.372C666.179,50.372 664.308,48.578 664.308,45.223" style="fill:rgb(78,41,132);fill-rule:nonzero;"/>
    </g>
    <g transform="matrix(4.16667,0,0,4.16667,0,37.6542)">
        <path d="M678.151,40.815C679.438,40.815 680.297,40.464 680.765,39.45L681.467,37.851L673.822,18.74L679.127,18.74L684.041,31.845L688.955,18.74L694.299,18.74L685.445,40.659C684.041,44.208 681.545,45.144 678.308,45.223C677.723,45.223 676.475,45.105 675.851,44.949L676.592,40.503C677.021,40.698 677.684,40.815 678.151,40.815" style="fill:rgb(78,41,132);fill-rule:nonzero;"/>
    </g>
</svg>
